<svg xmlns="http://www.w3.org/2000/svg" xmlns:xlink="http://www.w3.org/1999/xlink" width="65" height="65" version="1.1" viewBox="0 0 65 65"><g fill="none" fill-rule="evenodd" stroke="none" stroke-width="1"><g fill="#000" fill-rule="nonzero"><path id="Shape" d="M51.422,23.18 L41.8322,13.5902 L41.828294,13.5902 C39.718894,11.4769 36.293094,11.4769 34.179894,13.5902 L4.577894,43.1922 C2.210694,45.4578 0.851294,48.5828 0.812294,51.8641 C0.777138,55.1414 2.062294,58.2977 4.382594,60.618 C6.698994,62.9383 9.855294,64.2274 13.136494,64.1922 C16.413794,64.157044 19.542694,62.8016 21.808394,60.4305 L51.410394,30.8285 C53.523694,28.7191 53.531494,25.2973 51.422113,23.1801 L51.422,23.18 Z M17.57,56.18 C15.152,58.598 11.2302,58.598 8.8083,56.18 C6.3903,53.762 6.3903,49.8402 8.8083,47.4222 L25.5383,30.6992 C25.63986,30.85154 25.75314,30.99217 25.87814,31.12108 L33.87814,39.12108 C34.00705,39.24608 34.14767,39.35936 34.30002,39.46092 L17.57,56.18 Z M38.461,35.301 C38.35944,35.14866 38.24616,35.00803 38.12116,34.87912 L30.12116,26.87912 C29.99225,26.75412 29.85163,26.64084 29.69928,26.53928 L38.00008,18.23848 L46.76178,27.00018 L38.461,35.301 Z"/><polygon id="Path" points="57 0 54.172 5.172 49 8 54.172 10.828 57 16 59.828 10.828 65 8 59.828 5.172"/><polygon id="Path" points="57 38 54.531 42.52 50 45 54.531 47.469 57 52 59.469 47.469 64 45 59.469 42.52"/><polygon id="Path" points="18.52 5.52 14.001 8.001 18.52 10.481 21 15.001 23.481 10.481 28 8.001 23.481 5.52 21 1"/></g></g></svg>