<svg xmlns="http://www.w3.org/2000/svg" width="100pt" height="100pt" version="1.1" viewBox="0 0 100 100"><path d="m95.312 6.25h-90.625c-2.5898 0-4.6875 2.0977-4.6875 4.6875v78.125c0 2.5898 2.0977 4.6875 4.6875 4.6875h90.625c2.5898 0 4.6875-2.0977 4.6875-4.6875v-78.125c0-2.5898-2.0977-4.6875-4.6875-4.6875zm-57.812 4.6875c2.5898 0 4.6875 2.0977 4.6875 4.6875s-2.0977 4.6875-4.6875 4.6875-4.6875-2.0977-4.6875-4.6875 2.0977-4.6875 4.6875-4.6875zm-14.062 0c2.5898 0 4.6875 2.0977 4.6875 4.6875s-2.0977 4.6875-4.6875 4.6875-4.6875-2.0977-4.6875-4.6875 2.0977-4.6875 4.6875-4.6875zm-14.062 0c2.5898 0 4.6875 2.0977 4.6875 4.6875s-2.0977 4.6875-4.6875 4.6875-4.6875-2.0977-4.6875-4.6875 2.0977-4.6875 4.6875-4.6875zm85.938 78.125h-90.625v-64.062h90.625z"/></svg>