<svg xmlns="http://www.w3.org/2000/svg" width="100pt" height="100pt" version="1.1" viewBox="0 0 100 100"><path fill-rule="evenodd" d="m50 12.465c9.5938 0 19.188 3.6719 26.527 11.012 14.68 14.68 14.68 38.375 0 53.051-14.68 14.68-38.375 14.68-53.051 0-14.68-14.68-14.68-38.375 0-53.051 7.3359-7.3398 16.93-11.012 26.523-11.012zm15.332 18.922c-0.8125 0.027343-1.582 0.36719-2.1484 0.95312l-13.207 13.254-13.258-13.223c-0.59375-0.59766-1.4023-0.93359-2.2461-0.92578-2.7891 0.023438-4.1523 3.4102-2.1602 5.3594l13.258 13.219-13.223 13.258c-3.0664 2.9453 1.4727 7.4883 4.418 4.418l13.223-13.27 13.258 13.223c2.9453 3.0664 7.4883-1.4727 4.418-4.418l-13.258-13.223 13.207-13.258c2.0586-1.9922 0.58203-5.4727-2.2812-5.3711z"/></svg>