<svg width="80px" height="80px" viewBox="0 0 80 80" version="1.1" xmlns="http://www.w3.org/2000/svg" xmlns:xlink="http://www.w3.org/1999/xlink">
    <g stroke="none" stroke-width="1" fill="none" fill-rule="evenodd">
        <g transform="translate(-1119.000000, -403.000000)" fill="#000000">
            <path d="M1173.79965,440.16137 C1174.55713,440.911346 1174.98464,441.935106 1174.98464,443 C1174.98464,444.064893 1174.55716,445.088701 1173.79965,445.838629 L1157.79889,461.839396 C1157.05641,462.578122 1156.04771,462.994335 1155.00144,462.998179 C1153.93645,463.005577 1152.91648,462.589344 1152.15907,461.839396 C1151.40159,461.08942 1150.97783,460.065661 1150.97783,459.000767 C1150.97783,457.932034 1151.40157,456.912066 1152.15907,456.158394 L1165.32121,443.000096 L1152.24162,429.841797 C1150.67044,428.270615 1150.67044,425.728136 1152.24162,424.160699 C1153.80906,422.593261 1156.35145,422.593261 1157.91898,424.160699 L1173.79965,440.16137 Z M1199,443 C1199,453.60862 1194.78516,463.781414 1187.28166,471.281654 C1179.7819,478.785158 1169.60862,483 1159,483 C1148.39138,483 1138.21859,478.785158 1130.71835,471.281654 C1123.21484,463.781894 1119,453.60862 1119,443 C1119,432.391379 1123.21484,422.218585 1130.71835,414.718345 C1138.21811,407.214841 1148.39138,403 1159,403 C1169.60862,403 1179.78142,407.214841 1187.28166,414.718345 C1194.78516,422.218105 1199,432.391379 1199,443 Z" id="Fill-1"></path>
        </g>
    </g>
</svg>