<svg width="100pt" height="100pt" version="1.1" viewBox="0 0 100 100" xmlns="http://www.w3.org/2000/svg">
 <g>
  <path d="m67.758 34.387-1.1875-4.3711-1.1875 4.3711c-0.36719 1.3516-1.4141 2.4141-2.7617 2.7969l-4.2148 1.2031 4.2148 1.2031v0.003906c1.3477 0.38281 2.3945 1.4453 2.7617 2.7969l1.1875 4.3711 1.1875-4.3711c0.36719-1.3516 1.4141-2.4141 2.7617-2.7969l4.2148-1.2031-4.2148-1.2031v-0.003906c-1.3477-0.38281-2.3984-1.4453-2.7617-2.7969z"/>
  <path d="m61.918 60.648-1.5234-5.4766-1.5273 5.4766c-0.375 1.3516-1.4297 2.4062-2.7812 2.7812l-5.4766 1.5234 5.4766 1.5234v0.003907c1.3516 0.375 2.4062 1.4297 2.7812 2.7812l1.5234 5.4766 1.5234-5.4766h0.003907c0.375-1.3516 1.4297-2.4062 2.7773-2.7812l5.4805-1.5273-5.4766-1.5234c-1.3516-0.375-2.4062-1.4297-2.7812-2.7812z"/>
  <path d="m42.039 43.012c-1.3477-0.375-2.4023-1.4297-2.7773-2.7812l-2.3945-8.6016-2.3945 8.6016h-0.003906c-0.375 1.3516-1.4297 2.4062-2.7773 2.7812l-8.6016 2.3945 8.6016 2.3945c1.3477 0.375 2.4023 1.4297 2.7773 2.7812l2.3945 8.6016 2.3984-8.6016c0.375-1.3516 1.4297-2.4062 2.7773-2.7812l8.6016-2.3945z"/>
 </g>
</svg>