<svg xmlns="http://www.w3.org/2000/svg" width="100pt" height="100pt" version="1.1" viewBox="0 0 100 100"><g><path d="m25 25c0-4.6016 3.7305-8.332 8.332-8.332h41.668v-8.3359c0-2.207-0.87891-4.3281-2.4414-5.8906s-3.6836-2.4414-5.8906-2.4414h-50c-4.6055 0-8.3359 3.7305-8.3359 8.332v58.336c0 2.207 0.87891 4.3281 2.4414 5.8906s3.6836 2.4414 5.8945 2.4414h8.332z"/><path d="m41.668 25h50c4.6016 0 8.332 4.6016 8.332 8.332v58.332c0 4.6016-3.7305 8.332-8.332 8.332h-50c-4.6016 0-8.332-4.6016-8.332-8.332v-58.332c0-4.6016 3.7305-8.332 8.332-8.332z"/></g></svg>