<svg width="100px" height="85px" viewBox="0 0 100 85" version="1.1" xmlns="http://www.w3.org/2000/svg" xmlns:xlink="http://www.w3.org/1999/xlink">
    <g stroke="none" stroke-width="1" fill="none" fill-rule="evenodd">
        <g id="cloud" fill="#000000">
            <path d="M50.129,0.043 C62.531,0.043 73.645,8.0547 77.52,19.941 C89.922,19.941 100,30.019 100,42.679 C100,52.1745462 94.0921318,60.3077302 85.7566455,63.5983019 C83.2052698,64.6054998 81.5,63.5468 81.5,62 C81.5,60.4532 81.8896957,59.5718866 83.8503426,58.8014082 C90.2808531,56.2744005 94.832,50.0107784 94.832,42.683 C94.832,32.8627 87.082,25.113 77.52,25.113 C74.4184,25.113 71.5786,25.88644 68.9927,27.1794 C67.6997,27.95284 66.1489,27.43721 65.3755,26.40596 C64.85988,25.11296 65.11769,23.56216 66.4107,22.78876 C68.2193,21.75356 70.2857,20.98016 72.3521,20.46456 C68.7349,11.42156 59.9501,5.21856 50.1291,5.21856 C37.9841,5.21856 27.6491,14.26156 26.3561,26.40656 C26.3561,27.95736 24.8053,29.25036 23.2545,28.98856 C14.2115,26.66436 5.1685,35.44946 5.1685,44.49256 C5.1685,53.01986 12.1451,59.99656 20.9305,59.99656 L31.9505,59.99656 C33.5013,59.99656 34.5325,61.28956 34.5325,62.57856 C34.5325,64.12936 33.4973,65.16056 31.9505,65.16056 L20.9305,65.16056 C9.3015,65.16056 0.0005,55.85976 0.0005,44.48856 C0.0005,33.11756 10.3365,22.52356 21.7075,23.55856 C24.289,10.121 36.176,0.043 50.129,0.043 Z" id="Path" fill-rule="nonzero"></path>
            <g id="gear" transform="translate(37.000000, 41.000000)">
                <path d="M1.1993213,25.0570807 C-0.0156847888,25.9315906 -0.358028185,27.5677765 0.405623891,28.8434524 L4.52655243,35.8099031 C4.87827055,36.4070613 5.43123458,36.8618992 6.09141324,37.0967016 C6.81553453,37.3333498 7.6073541,37.2593972 8.27316626,36.8933308 L11.9840531,35.2275639 C12.6310869,35.6509418 13.3025326,36.0336351 13.9984383,36.3738406 L14.3783672,40.4338255 C14.3840103,40.5003805 14.3934139,40.5669401 14.406578,40.6334998 C14.6623726,41.9849979 15.8491871,42.972247 17.2485097,42.9999911 L25.4623437,42.9999911 C26.9745289,43.00368 28.2346993,41.859243 28.3513175,40.3764994 L28.7218429,36.3775229 C29.423382,36.0391916 30.1005093,35.656503 30.7493729,35.2275544 L34.4997905,36.9265941 L34.5919536,36.9635727 L34.5919536,36.9654186 C35.9442822,37.499723 37.4903165,36.9839103 38.2313865,35.7489047 L42.3052729,28.8581814 L42.3052729,28.8563356 C43.0726806,27.5861971 42.7397457,25.9518571 41.5341095,25.0699638 L38.4006322,22.7219874 C38.4420119,22.3170964 38.4627018,21.9103786 38.4627018,21.5017817 C38.4627018,21.0857967 38.4382514,20.6920188 38.4006322,20.3240781 L41.7711016,17.9575958 L41.8087209,17.9298606 L41.8087209,17.9280148 C43.0180935,17.0498132 43.3566331,15.4154731 42.5930291,14.141643 L38.3799423,7.19933042 C37.644554,5.87741339 35.9574415,5.38935007 34.6107464,6.11036517 L30.91676,7.77613209 C30.2697262,7.3527542 29.5964027,6.97006561 28.900497,6.62985538 L28.5243286,2.56987094 C28.5186854,2.50146541 28.5092818,2.43305987 28.4961177,2.36650018 C28.2403232,1.01315626 27.049753,0.0240613049 25.6503774,8.90057013e-06 L17.4403954,8.90057013e-06 C15.9282102,-0.00367860111 14.6680398,1.13886381 14.5514215,2.62165431 L14.1808962,6.63544974 C13.4793571,6.97008454 12.8022298,7.35093201 12.1533662,7.77618889 L8.41238591,6.08637851 L8.32022283,6.04939986 C6.96789419,5.51324962 5.41998202,6.0309129 4.68078993,7.26591377 L0.606905437,14.1471711 C-0.154820656,15.4191554 0.181836276,17.0516496 1.38745801,17.9335429 L1.42507486,17.9612733 L4.79554478,20.3277556 C4.75792553,20.6975185 4.73347518,21.089479 4.73347518,21.5054592 C4.73347518,21.9214442 4.73347518,22.2967636 4.79177948,22.6554277 L1.27647616,25.0034041 L1.1993213,25.0570807 Z M7.94026018,25.1328838 C8.55151889,24.7242965 8.87128014,24.0088047 8.76405106,23.2914766 C8.65684124,22.699856 8.59477645,22.1026979 8.57596924,21.501848 C8.58913333,20.8991523 8.64744245,20.2982551 8.74900914,19.7029428 C8.85245366,19.0022274 8.54775841,18.3015593 7.9590674,17.8911166 L4.33846097,15.3489939 L7.58292301,9.85780828 L11.5702847,11.6604052 L11.5702847,11.6622558 C12.2398525,11.965459 13.0279164,11.8656266 13.5978146,11.4071206 C14.5645616,10.6675949 15.6310262,10.0648992 16.7670189,9.617492 C17.4159306,9.34386985 17.8616511,8.74298212 17.9255937,8.04969745 L18.3205694,3.76598578 L24.7682774,3.76783163 L25.1632531,8.05154331 L25.1632531,8.04969745 C25.2215574,8.7448753 25.6635752,9.3531086 26.3143166,9.63230618 C27.4635022,10.1129861 28.5487452,10.730496 29.5455856,11.4718676 C30.1117282,11.8878526 30.8621873,11.9673616 31.5054173,11.6752383 L35.5022163,9.86710383 L38.8332031,15.3488235 L35.2219858,17.8705944 C34.6332611,18.2828783 34.3285707,18.9817526 34.4320441,19.6842665 C34.5336108,20.2795788 34.5919151,20.8804287 34.605084,21.4831717 C34.5919199,22.0858674 34.5336108,22.6867646 34.4320441,23.2820769 C34.3342427,23.9605947 34.6182481,24.6409584 35.173114,25.0569387 L38.5680434,27.5990613 L35.3179479,33.1309505 L31.3305862,31.3283535 L31.3324689,31.3283535 C30.6610232,31.0251504 29.8748371,31.1231369 29.3049389,31.5834887 C28.338192,32.3211686 27.2717273,32.9238643 26.1357346,33.3712715 C25.486823,33.6448936 25.0411025,34.2476272 24.9752339,34.939066 L24.5802582,39.2227777 L18.1291797,39.2227777 L17.734204,34.939066 C17.6702566,34.2476272 17.2244927,33.6448842 16.5737032,33.3712715 C15.4245176,32.8905916 14.3392746,32.2730817 13.3424342,31.5317101 C12.7781694,31.1175757 12.0295882,31.0380619 11.388236,31.3283393 L7.40087432,33.1309363 L4.16580145,27.6548961 L7.94026018,25.1328838 Z" id="Fill-1"></path>
                <path d="M21.5002592,30.9992853 C23.7537849,30.9992853 25.916471,30.1044559 27.5107167,28.5100307 C29.1052097,26.9155561 30,24.752895 30,22.4996426 C30,20.2463903 29.1051602,18.0834818 27.5107167,16.4892546 C25.9162237,14.8947799 23.7535376,14 21.5002592,14 C19.2469808,14 17.0840474,14.8948294 15.4898017,16.4892546 C13.8953087,18.0837292 13.0005184,20.2463903 13.0005184,22.4996426 C12.975394,24.7608607 13.8644351,26.9370783 15.4627873,28.5372427 C17.0630692,30.1355765 19.2392624,31.0245677 21.5004571,30.9994832 L21.5002592,30.9992853 Z M21.5002592,17.9578118 C23.3382282,17.9578118 24.9926378,19.0633116 25.6961503,20.7621319 C26.3996627,22.4590225 26.0111798,24.4129429 24.7124005,25.7117468 C23.4136212,27.0105507 21.4596881,27.3989896 19.7627284,26.6954853 C18.0638885,25.9919809 16.958376,24.3376399 16.958376,22.4996426 C16.944849,21.2917268 17.418358,20.1282408 18.2745613,19.2740314 C19.1288299,18.417843 20.29228,17.9443543 21.5002097,17.9578613 L21.5002592,17.9578118 Z" id="Fill-2"></path>
            </g>
        </g>
    </g>
</svg>