<svg width="100pt" height="100pt" version="1.1" viewBox="0 0 100 100" xmlns="http://www.w3.org/2000/svg">
	<g fill-rule="evenodd">
		<path d="m20.824 62.504c-9.1602 0-16.672 7.5078-16.672 16.672v4.1523c-0.007813 2.3125 1.8711 4.1914 4.1836 4.1836h50.012c2.3008-0.007813 4.1602-1.8828 4.1523-4.1836v-4.1523c0-9.1602-7.5078-16.672-16.672-16.672z" />
		<path d="m33.34 12.492c-11.457 0-20.855 9.3984-20.855 20.855 0 11.457 9.3984 20.824 20.855 20.824 11.457 0 20.824-9.3672 20.824-20.824 0-11.457-9.3672-20.855-20.824-20.855z" />
		<path d="m70.832 62.508c-1.9727 0-3.8438 0.40234-5.6055 1.0391 3.4922 4.3047 5.6055 9.7539 5.6055 15.625v4.1523c0 1.4258-0.24609 2.8398-0.72266 4.1836h21.551c2.3125 0.007813 4.1914-1.8672 4.1836-4.1836v-4.1523c0-9.1602-7.5039-16.668-16.668-16.668z" />
		<path d="m74.988 29.168c-6.8555 0-12.488 5.6328-12.488 12.488s5.6328 12.52 12.488 12.52 12.52-5.6641 12.52-12.52-5.6641-12.488-12.52-12.488z" />
	</g>
</svg>