<svg width="100pt" height="100pt" version="1.1" viewBox="0 0 100 100" xmlns="http://www.w3.org/2000/svg">
 <path d="m71.91 59.289h-7.9336v-18.578h7.9336c5.1055 0 9.7031-3.0781 11.656-7.793 1.9531-4.7148 0.87109-10.141-2.7344-13.75-3.6094-3.6055-9.0352-4.6875-13.75-2.7344-4.7148 1.9531-7.793 6.5508-7.793 11.656v7.9336h-18.578v-7.9336c0-5.1055-3.0742-9.7031-7.7891-11.656s-10.145-0.87109-13.75 2.7344c-3.6094 3.6094-4.6914 9.0352-2.7383 13.75 1.9531 4.7148 6.5508 7.793 11.652 7.793h7.9375v18.578h-7.9375c-5.1016 0-9.6992 3.0781-11.652 7.793-1.9531 4.7148-0.87109 10.141 2.7383 13.75 3.6055 3.6055 9.0352 4.6875 13.75 2.7344s7.7891-6.5508 7.7891-11.656v-7.9336h18.578v7.9336c0 5.1055 3.0781 9.7031 7.793 11.656 4.7148 1.9531 10.141 0.87109 13.75-2.7344 3.6055-3.6094 4.6875-9.0352 2.7344-13.75-1.9531-4.7148-6.5508-7.793-11.656-7.793zm-7.9336-31.199c0-3.207 1.9336-6.0977 4.8984-7.3242 2.9609-1.2266 6.375-0.55078 8.6406 1.7188 2.2695 2.2656 2.9453 5.6797 1.7188 8.6406-1.2266 2.9648-4.1172 4.8984-7.3242 4.8984h-7.9336zm-43.812 0c0.058594-4.3359 3.5938-7.8203 7.9297-7.8203s7.8672 3.4844 7.9297 7.8203v7.9336h-7.9375c-4.3789-0.003907-7.9297-3.5547-7.9297-7.9336zm15.859 43.82c0 3.207-1.9336 6.0977-4.8984 7.3242-2.9609 1.2266-6.3711 0.55078-8.6406-1.7188-2.2695-2.2656-2.9453-5.6758-1.7227-8.6406 1.2266-2.9648 4.1172-4.8984 7.3242-4.8984h7.9375zm4.6875-31.199h18.578v18.578h-18.578zm31.191 39.133c-4.375-0.003906-7.9219-3.5508-7.9258-7.9258v-7.9414h7.9336c4.3828 0.003907 7.9336 3.5547 7.9297 7.9375 0 4.3828-3.5547 7.9336-7.9375 7.9297z"/>
</svg>