<svg width="100pt" height="100pt" version="1.1" viewBox="0 0 100 100" xmlns="http://www.w3.org/2000/svg">
 <g>
  <path d="m16 78.57h68v11.43h-68z"/>
  <path d="m82.57 34.57-17.715 11.43-11.43-22.285c-1.1445 0.57031-2.2852 0.57031-3.4297 0.57031-1.1445 0-2.5703-0.28516-3.7148-0.85547l-11.43 22.285-17.43-11.145c-1.1445 2-3.1445 3.1445-5.4297 3.7148l9.1445 34.285h56.855l9.1445-34.285c-1.707-0.57031-3.707-1.7148-4.5664-3.7148z"/>
  <path d="m4.2852 30c0 3.1445 2.5703 5.7148 5.7148 5.7148s5.7148-2.5703 5.7148-5.7148-2.5703-5.7148-5.7148-5.7148-5.7148 2.5703-5.7148 5.7148z"/>
  <path d="m95.715 30c0-3.1445-2.5703-5.7148-5.7148-5.7148s-5.7148 2.5703-5.7148 5.7148c0 2.2852 1.4297 4.8555 4 5.7148 3.7148 1.1406 7.4297-1.7148 7.4297-5.7148z"/>
  <path d="m44.285 15.715c0 3.1445 2.5703 5.7148 5.7148 5.7148s5.7148-2.5703 5.7148-5.7148c0-3.1445-2.5703-5.7148-5.7148-5.7148s-5.7148 2.5703-5.7148 5.7148z"/>
 </g>
</svg>