<svg width="100pt" height="100pt" version="1.1" viewBox="0 0 100 100" xmlns="http://www.w3.org/2000/svg">
 <g>
  <path d="m86.895 8.4961c-20.387-9.2227-53.398-9.2227-73.785 0-8.2539 3.8828-13.105 8.7383-13.105 13.594 0 4.8555 4.8555 9.707 13.105 13.594 20.387 9.2227 53.398 9.2227 73.785 0 8.2539-3.8828 13.105-8.7383 13.105-13.594 0-4.8555-4.8555-9.707-13.105-13.594z"/>
  <path d="m100 66.746c-2.4258 1.9414-5.8242 3.8828-9.2227 5.8242-22.816 10.195-58.738 10.195-81.555 0-3.3984-1.9414-6.7969-3.8828-9.2227-5.8242v11.164c0 4.8555 4.8555 9.707 13.105 13.594 20.387 9.2227 53.398 9.2227 73.785 0 8.2539-3.8828 13.105-8.7383 13.105-13.594v-11.164z"/>
  <path d="m100 39.078c-2.4258 1.9414-5.8242 3.8828-9.2227 5.3398-22.816 10.68-58.738 10.68-81.555 0-3.3984-1.457-6.7969-3.3984-9.2227-5.3398v11.164c0 4.8555 4.8555 9.707 13.105 13.105 20.387 9.707 53.398 9.707 73.785 0 8.2539-3.3984 13.105-8.2539 13.105-13.105v-11.164z"/>
 </g>
</svg>