<?xml version="1.0" encoding="UTF-8"?>
<svg xmlns="http://www.w3.org/2000/svg" xmlns:xlink="http://www.w3.org/1999/xlink" width="810pt" height="809.999993pt" viewBox="0 0 810 809.999993" version="1.2">
<defs>  
<clipPath id="clip1">
  <path d="M 176 212.472656 L 633 212.472656 L 633 597.222656 L 176 597.222656 Z M 176 212.472656 "/>
</clipPath>
</defs>
<g id="surface1">
<rect x="0" y="0" width="810" height="809.999993" style="fill:rgb(100%,100%,100%);fill-opacity:1;stroke:none;"/>
<rect x="0" y="0" width="810" height="809.999993" style="fill:rgb(100%,100%,100%);fill-opacity:1;stroke:none;"/>
<rect x="0" y="0" width="810" height="809.999993" style="fill:rgb(64.709473%,88.62915%,100%);fill-opacity:1;stroke:none;"/>
<g clip-path="url(#clip1)" clip-rule="nonzero">
<path style=" stroke:none;fill-rule:nonzero;fill:rgb(14.898682%,35.688782%,52.549744%);fill-opacity:1;" d="M 193.589844 212.550781 C 184.328125 212.550781 176.675781 220.144531 176.675781 229.425781 L 176.675781 580.296875 C 176.675781 589.550781 184.328125 597.144531 193.589844 597.144531 L 615.773438 597.144531 C 625.035156 597.144531 632.636719 589.550781 632.636719 580.296875 C 632.636719 463.355469 632.636719 346.285156 632.636719 229.425781 C 632.636719 220.144531 625.035156 212.550781 615.773438 212.550781 Z M 193.589844 222.675781 L 615.773438 222.675781 C 619.601562 222.675781 622.503906 225.605469 622.503906 229.425781 L 622.503906 253.027344 L 186.808594 253.027344 L 186.808594 229.425781 C 186.808594 225.605469 189.761719 222.675781 193.589844 222.675781 Z M 186.808594 263.152344 L 622.503906 263.152344 L 622.503906 580.296875 C 622.503906 584.117188 619.601562 587.046875 615.773438 587.046875 L 193.589844 587.046875 C 189.761719 587.046875 186.808594 584.117188 186.808594 580.296875 Z M 222.324219 274.671875 C 208.390625 274.671875 196.941406 286.039062 196.941406 299.960938 C 196.941406 313.882812 208.390625 325.296875 222.324219 325.296875 C 236.230469 325.296875 247.628906 313.882812 247.628906 299.960938 C 247.628906 286.039062 236.230469 274.671875 222.324219 274.671875 Z M 429.722656 280.765625 C 424.367188 280.765625 419.878906 285.246094 419.878906 290.597656 L 419.878906 309.398438 C 419.878906 314.75 424.367188 319.207031 429.722656 319.207031 L 602.582031 319.207031 C 607.9375 319.207031 612.421875 314.75 612.421875 309.398438 L 612.421875 290.597656 C 612.421875 285.246094 607.9375 280.765625 602.582031 280.765625 Z M 222.324219 284.796875 C 230.765625 284.796875 237.496094 291.523438 237.496094 299.960938 C 237.496094 308.421875 230.765625 315.171875 222.324219 315.171875 C 213.851562 315.171875 207.070312 308.421875 207.070312 299.960938 C 207.070312 291.523438 213.851562 284.796875 222.324219 284.796875 Z M 430.011719 290.890625 L 602.289062 290.890625 L 602.289062 309.082031 L 430.011719 309.082031 Z M 272.40625 294.921875 C 265.808594 295.371094 266.285156 305.207031 272.90625 305.046875 L 293.171875 305.046875 C 300.085938 305.207031 300.085938 294.765625 293.171875 294.921875 L 272.90625 294.921875 C 272.75 294.921875 272.589844 294.921875 272.40625 294.921875 Z M 323.09375 294.921875 C 316.496094 295.398438 317 305.257812 323.621094 305.046875 L 343.886719 305.046875 C 350.800781 305.207031 350.800781 294.765625 343.886719 294.921875 L 323.621094 294.921875 C 323.4375 294.921875 323.277344 294.921875 323.09375 294.921875 Z M 303.09375 371.152344 C 293.9375 371.152344 286.441406 378.691406 286.441406 387.816406 L 286.441406 465.886719 C 286.441406 475.039062 293.9375 482.550781 303.09375 482.550781 C 371.011719 482.710938 438.429688 482.550781 506.269531 482.550781 C 515.398438 482.550781 522.917969 475.039062 522.917969 465.886719 L 522.917969 387.816406 C 522.917969 378.691406 515.398438 371.152344 506.269531 371.152344 Z M 303.09375 381.300781 L 506.269531 381.300781 C 509.964844 381.300781 512.789062 384.125 512.789062 387.816406 L 512.789062 465.886719 C 512.789062 469.605469 509.964844 472.425781 506.269531 472.425781 L 496.71875 472.425781 C 481.359375 456.921875 465.554688 440.867188 449.960938 425.230469 C 449.011719 424.253906 447.214844 423.726562 445.84375 423.726562 C 444.605469 423.753906 443.417969 424.226562 442.492188 425.046875 L 400.144531 463.144531 L 366.84375 433.167969 C 365.972656 432.347656 364.8125 431.902344 363.625 431.847656 C 362.382812 431.796875 361.167969 432.21875 360.21875 433.007812 C 344.152344 446.375 328.449219 459.375 312.960938 472.425781 L 303.09375 472.425781 C 299.371094 472.425781 296.550781 469.605469 296.550781 465.886719 L 296.550781 387.816406 C 296.550781 384.125 299.371094 381.300781 303.09375 381.300781 Z M 404.65625 391.425781 C 394.65625 391.425781 386.449219 399.652344 386.449219 409.648438 C 386.449219 419.640625 394.65625 427.839844 404.65625 427.839844 C 414.65625 427.839844 422.914062 419.640625 422.914062 409.648438 C 422.914062 399.652344 414.65625 391.425781 404.65625 391.425781 Z M 404.65625 401.550781 C 409.195312 401.550781 412.78125 405.113281 412.78125 409.648438 C 412.78125 414.183594 409.195312 417.714844 404.65625 417.714844 C 400.117188 417.714844 396.582031 414.183594 396.582031 409.648438 C 396.582031 405.113281 400.117188 401.550781 404.65625 401.550781 Z M 445.6875 435.777344 L 482.207031 472.425781 L 410.460938 472.425781 L 407.742188 469.976562 Z M 363.308594 443.632812 L 395.339844 472.425781 L 328.425781 472.425781 Z M 283.066406 505.332031 C 276.152344 505.175781 276.152344 515.589844 283.066406 515.457031 L 343.886719 515.457031 C 350.800781 515.589844 350.800781 505.175781 343.886719 505.332031 Z M 374.308594 505.332031 C 367.398438 505.175781 367.398438 515.589844 374.308594 515.457031 L 465.476562 515.457031 C 472.390625 515.589844 472.390625 505.175781 465.476562 505.332031 Z M 495.875 505.332031 C 488.960938 505.175781 488.960938 515.589844 495.875 515.457031 L 526.296875 515.457031 C 533.183594 515.589844 533.183594 505.175781 526.296875 505.332031 Z M 256.785156 538.34375 C 250.1875 538.820312 250.664062 548.65625 257.257812 548.46875 L 552.050781 548.46875 C 558.964844 548.628906 558.964844 538.214844 552.050781 538.34375 L 257.257812 538.34375 C 257.101562 538.34375 256.941406 538.34375 256.785156 538.34375 "/>
</g>
</g>
</svg>