<svg xmlns="http://www.w3.org/2000/svg" xmlns:xlink="http://www.w3.org/1999/xlink" width="102" height="102" version="1.1" viewBox="0 0 102 102"><g fill="none" fill-rule="evenodd" stroke="none" stroke-width="1"><g><rect id="Rectangle" width="102" height="102" x="0" y="0"/><path id="Fill-1" fill="#000" d="M78.7317016,54.67984 C77.5989016,51.65254 75.3567016,49.25014 72.4192016,47.91034 C70.8294016,47.18768 69.1458016,46.82444 67.4114016,46.82444 C65.2434016,46.82444 63.1770016,47.42991 61.3684016,48.47674 L50.7784016,35.22674 C50.9971516,34.87908 51.2002816,34.5158 51.3760616,34.13294 C53.4971616,29.47274 51.4307416,23.95294 46.7744616,21.83594 C45.5556616,21.28125 44.2627616,21 42.9306616,21 C39.2978616,21 35.9775616,23.1328 34.4736616,26.4375 C32.3525616,31.0977 34.4189716,36.6135 39.0752616,38.7385 C40.2940616,39.29319 41.5869616,39.57444 42.9190616,39.57444 C44.8721616,39.57444 46.7276616,38.93772 48.2706616,37.85174 L58.5556616,50.71874 C57.6884716,51.65233 56.9501616,52.71094 56.4072616,53.90234 C55.3330616,56.25394 55.0595616,58.83204 55.5713216,61.31644 L40.2233216,66.90234 C39.2662916,65.31254 37.8639216,64.04294 36.1374216,63.25784 C34.9186216,62.69925 33.6257216,62.4219 32.2936216,62.4219 C28.6608216,62.4219 25.3444216,64.5586 23.8405216,67.8594 C22.8132216,70.1133 22.7233216,72.6367 23.5944316,74.961 C24.4616216,77.2813 26.1842316,79.129 28.4421316,80.1563 C29.6609316,80.71099 30.9577316,80.99614 32.2898316,80.99614 C35.9187316,80.99614 39.2351316,78.85944 40.7390316,75.55864 C41.5007516,73.87894 41.7429316,72.06254 41.4616916,70.28914 L56.8056916,64.70324 C58.0478916,66.99624 59.9853916,68.82824 62.3994916,69.92984 C63.9892916,70.6525 65.6728916,71.01964 67.4111916,71.01964 C72.1416916,71.01964 76.4580916,68.23844 78.4151916,63.93764 C79.7471916,60.99234 79.8643916,57.70714 78.7316016,54.67984 L78.7317016,54.67984 Z M37.4507016,74.05884 C36.5288216,76.07834 34.5015016,77.38694 32.2788016,77.38694 C31.4663016,77.38694 30.6733016,77.21506 29.9233016,76.87522 C28.5405016,76.24241 27.4858016,75.11352 26.9545016,73.69552 C26.4193416,72.27362 26.4740316,70.73072 27.1068416,69.34782 C28.0287116,67.32832 30.0599416,66.01582 32.2826416,66.01582 C33.0951416,66.01582 33.8842416,66.1916 34.6342416,66.53144 C36.0170416,67.16035 37.0717416,68.29314 37.6030416,69.71114 C38.1342916,71.13304 38.0835116,72.67594 37.4507016,74.05884 Z"/></g></g></svg>