<svg width="100pt" height="100pt" version="1.1" viewBox="0 0 100 100" xmlns="http://www.w3.org/2000/svg">
	<g>
		<path d="m20.418 67.5 10-10c-0.83594-2.082-1.25-5-1.25-7.5 0-11.668 9.168-20.832 20.832-20.832 2.5 0 5.418 0.41797 7.5 1.668l7.082-7.082c-4.582-2.0859-9.582-2.9219-14.582-2.9219-18.75 0-34.582 12.086-41.668 29.168 2.918 6.668 7.0859 12.918 12.086 17.5z" />
		<path d="m79.582 32.5 5.832-5.832-5.832-5.8359-20.414 20.414-17.5 17.504-20.418 20.418 5.832 5.832 8.75-8.75c4.168 2.082 9.168 2.918 14.168 2.918 18.75 0 34.582-12.082 41.668-29.168-2.918-6.668-7.0859-12.918-12.086-17.5zm-29.582 38.332c-2.5 0-5.418-0.41797-7.5-1.668l7.082-7.082h0.83203c7.082 0 12.5-5.418 12.5-12.5v-0.83203l7.082-7.082c0.83203 2.5 1.668 5 1.668 7.5-0.83203 12.5-9.9961 21.664-21.664 21.664z" />
		<path d="m50 37.5c-7.082 0-12.5 5.418-12.5 12.5v0.83203l13.332-13.332z" />
	</g>
</svg>