<svg width="100pt" height="100pt" version="1.1" viewBox="0 0 100 100" xmlns="http://www.w3.org/2000/svg">
	<g>
		<path d="m62.5 50c0 6.9023-5.5977 12.5-12.5 12.5s-12.5-5.5977-12.5-12.5 5.5977-12.5 12.5-12.5 12.5 5.5977 12.5 12.5" />
		<path d="m50 20.832c-18.75 0-34.582 12.082-41.668 29.168 7.082 17.082 23.332 29.168 41.668 29.168 18.332 0 34.582-12.082 41.668-29.168-7.082-17.082-22.918-29.168-41.668-29.168zm0 50c-11.668 0-20.832-9.168-20.832-20.832 0-11.668 9.168-20.832 20.832-20.832 11.668 0 20.832 9.168 20.832 20.832 0 11.668-9.168 20.832-20.832 20.832z" />
	</g>
</svg>