<svg width="83px" height="74px" viewBox="0 0 83 74" version="1.1" xmlns="http://www.w3.org/2000/svg" xmlns:xlink="http://www.w3.org/1999/xlink">
    <g stroke="none" stroke-width="1" fill="none" fill-rule="evenodd">
        <g transform="translate(-1161.000000, -610.000000)" fill="#000000" fill-rule="nonzero">
            <g transform="translate(1161.000000, 610.000000)">
                <path d="M27.8807157,0 C31.7016219,0 35.1950068,2.15067201 36.8986623,5.5541789 C37.8692532,7.48859273 39.8513857,8.70465326 42.0137177,8.70465326 L76.4474788,8.70465326 C80.0636318,8.70465326 83,11.6307206 83,15.2341879 L83,67.4704653 C83,71.0780071 80.0636318,74 76.4474788,74 L6.55252122,74 C2.93636823,74 0,71.0780071 0,67.4704653 L0,6.52953467 C0,2.92606731 2.93636823,0 6.55252122,0 L27.8807157,0 Z M42,19 C36.166,19 30.5705,21.3183499 26.4435,25.4434999 C22.3185,29.5704498 20,35.1659996 20,41 C20,46.8339994 22.31835,52.4294992 26.4435,56.5564991 C30.57045,60.6814991 36.166,63 42,63 C47.834,63 53.4295,60.6816491 57.5565,56.5564991 C61.6815,52.4295492 64,46.8339994 64,41 C64,35.1659996 61.68165,29.5704998 57.5565,25.4434999 C53.42955,21.3184999 47.834,19 42,19 Z M44.74415,28.6249998 C47.69335,28.6249998 50.41615,30.1972497 51.89065,32.7499997 C53.3633,35.3027496 53.3633,38.4474996 51.89065,40.9999995 C50.41605,43.5527494 47.6934,45.1249998 44.74415,45.1249998 L39.24415,45.1249998 L39.24415,53.3749992 L33.74415,53.3749992 L33.74415,28.6249998 L44.74415,28.6249998 Z M44.3270377,33.49 L39,33.49 L39,39.49 L44.3270377,39.49 C45.798753,39.4942444 46.9943243,38.1540649 47,36.4963768 C47,35.6973963 46.7181513,34.9324521 46.2168286,34.3699803 C45.7155543,33.8053377 45.0345168,33.49 44.3270377,33.49 L44.3270377,33.49 Z" id="Combined-Shape"></path>
            </g>
        </g>
    </g>
</svg>