<svg xmlns="http://www.w3.org/2000/svg" xmlns:xlink="http://www.w3.org/1999/xlink" width="83" height="74" version="1.1" viewBox="0 0 83 74"><g id="folder" fill="none" fill-rule="evenodd" stroke="none" stroke-width="1"><g fill="#000" fill-rule="nonzero" transform="translate(-360.000000, -160.000000)"><g id="folder-share" transform="translate(360.000000, 160.000000)"><path id="Combined-Shape" d="M27.8807157,0 C31.7016219,0 35.1950068,2.15067201 36.8986623,5.5541789 C37.8692532,7.48859273 39.8513857,8.70465326 42.0137177,8.70465326 L76.4474788,8.70465326 C80.0636318,8.70465326 83,11.6307206 83,15.2341879 L83,67.4704653 C83,71.0780071 80.0636318,74 76.4474788,74 L6.55252122,74 C2.93636823,74 0,71.0780071 0,67.4704653 L0,6.52953467 C0,2.92606731 2.93636823,0 6.55252122,0 L27.8807157,0 Z M41.5,42 C31.8347927,42 24,50.45777 24,60 L24,60 L59,60 C59,50.45777 51.1652073,42 41.5,42 Z M51.2365451,26.174879 C49.1241025,21.0725704 43.2759021,18.6510347 38.1732417,20.7633984 C33.0726384,22.877184 30.6510123,28.72564 32.7634549,33.826214 C34.8758975,38.9266269 40.7240979,41.350011 45.8267583,39.2357989 C50.9273616,37.1234351 53.3489877,31.2749791 51.2365451,26.174879 Z"/></g></g></g></svg>