<svg width="83px" height="74px" viewBox="0 0 83 74" version="1.1" xmlns="http://www.w3.org/2000/svg" xmlns:xlink="http://www.w3.org/1999/xlink">
    <g id="folder" stroke="none" stroke-width="1" fill="none" fill-rule="evenodd">
        <g transform="translate(-120.000000, -160.000000)" fill="#000000" fill-rule="nonzero">
            <g id="folder-project-share" transform="translate(120.000000, 160.000000)">
                <path d="M27.8807157,0 C31.7016219,0 35.1950068,2.15067201 36.8986623,5.5541789 C37.8692532,7.48859273 39.8513857,8.70465326 42.0137177,8.70465326 L76.4474788,8.70465326 C80.0636318,8.70465326 83,11.6307206 83,15.2341879 L83,67.4704653 C83,71.0780071 80.0636318,74 76.4474788,74 L6.55252122,74 C2.93636823,74 0,71.0780071 0,67.4704653 L0,6.52953467 C0,2.92606731 2.93636823,0 6.55252122,0 L27.8807157,0 Z M57.5,42 C47.8347927,42 40,50.45777 40,60 L40,60 L75,60 C75,50.45777 67.1652073,42 57.5,42 Z M22,26 C18.2874545,26 14.7266818,27.4753136 12.1004091,30.100409 C9.47540909,32.7266498 8,36.2874543 8,40 C8,43.7125451 9.47531364,47.2733177 12.1004091,49.8995904 C14.72665,52.5245903 18.2874545,54 22,54 C25.7125455,54 29.2733182,52.5246858 31.8995909,49.8995904 C34.5245909,47.2733495 36,43.7125451 36,40 C36,36.2874543 34.5246864,32.7266817 31.8995909,30.100409 C29.27335,27.4754091 25.7125455,26 22,26 Z M23.7462773,32.1249999 C25.6230409,32.1249999 27.3557318,33.1255226 28.29405,34.7499998 C29.2311909,36.374477 29.2311909,38.3756815 28.29405,39.9999997 C27.3556682,41.6244769 25.6230727,42.6249999 23.7462773,42.6249999 L20.2462773,42.6249999 L20.2462773,47.8749995 L16.7462773,47.8749995 L16.7462773,32.1249999 L23.7462773,32.1249999 Z M67.2365451,26.174879 C65.1241025,21.0725704 59.2759021,18.6510347 54.1732417,20.7633984 C49.0726384,22.877184 46.6510123,28.72564 48.7634549,33.826214 C50.8758975,38.9266269 56.7240979,41.350011 61.8267583,39.2357989 C66.9273616,37.1234351 69.3489877,31.2749791 67.2365451,26.174879 Z M23.4808422,35.2209091 L20.0909091,35.2209091 L20.0909091,39.0390909 L23.4808422,39.0390909 C24.4173883,39.0417919 25.1782064,38.1889504 25.1818182,37.1340579 C25.1818182,36.6256158 25.0024599,36.1388332 24.6834364,35.7808966 C24.3644437,35.4215785 23.9310561,35.2209091 23.4808422,35.2209091 Z" id="Combined-Shape"></path>
            </g>
        </g>
    </g>
</svg>