<svg xmlns="http://www.w3.org/2000/svg" width="100pt" height="100pt" version="1.1" viewBox="0 0 100 100"><path d="m50 97.047l-8.9844-8.9844c-12.789-11.32-22.383-19.984-29.297-28.391-7.9922-9.7344-11.719-18.496-11.719-27.578 0-7.9219 2.9922-15.277 8.4258-20.703 5.4336-5.4258 12.789-8.4258 20.703-8.4258 7.6367 0 15.188 2.9922 20.863 8.1484 5.6797-5.1562 13.227-8.1484 20.863-8.1484 7.9219 0 15.277 2.9922 20.703 8.4258 5.4258 5.4297 8.4414 12.781 8.4414 20.703 0 9.0859-3.7266 17.848-11.719 27.578-6.9102 8.3984-16.5 17.074-29.297 28.391zm-20.863-86.82c-12.465 0-21.863 9.3984-21.863 21.863 0 15.648 13.965 28.762 38.648 50.586l0.16406 0.15234 3.9141 3.9297 4-4 0.085938-0.074218c24.68-21.836 38.648-34.949 38.648-50.586 0-12.465-9.3984-21.863-21.863-21.863-6.7461 0-13.672 3.2383-18.086 8.4492l-2.7852 3.2773-2.7734-3.2812c-4.4141-5.2109-11.344-8.4531-18.09-8.4531z"/></svg>