<svg height='100px' width='100px'  fill="#1A1A1A" xmlns="http://www.w3.org/2000/svg" xmlns:xlink="http://www.w3.org/1999/xlink" version="1.1" x="0px" y="0px" viewBox="0 0 64 64" enable-background="new 0 0 64 64" xml:space="preserve"><g><path fill="#1A1A1A" d="M49.122,51.451V38.049c0-9.471-7.705-17.176-17.175-17.176s-17.176,7.705-17.176,17.176v13.403   c-1.557,0.252-2.748,1.599-2.748,3.227c0,1.808,1.466,3.273,3.273,3.273h33.3c1.808,0,3.273-1.466,3.273-3.273   C51.87,53.05,50.68,51.703,49.122,51.451z M31.947,25.48c6.93,0,12.568,5.638,12.568,12.568v13.357H19.378V38.049   C19.378,31.118,25.016,25.48,31.947,25.48z"></path><path fill="#1A1A1A" d="M24.202,38.832c-0.708,0-1.282-0.574-1.282-1.282c0-4.919,4.001-8.92,8.92-8.92   c1.202,0,2.37,0.236,3.471,0.703c0.652,0.276,0.956,1.028,0.68,1.68c-0.276,0.652-1.028,0.957-1.681,0.68   c-0.783-0.332-1.614-0.5-2.47-0.5c-3.505,0-6.356,2.852-6.356,6.356C25.484,38.258,24.91,38.832,24.202,38.832z"></path><path fill="#1A1A1A" d="M6.769,40.038c-1.13,0.001-2.261,0.037-3.388-0.008c-1.57-0.063-2.503-0.979-2.509-2.384   c-0.006-1.43,0.895-2.343,2.489-2.375c2.258-0.045,4.518-0.045,6.777-0.001c1.648,0.032,2.539,0.877,2.572,2.293   c0.034,1.468-0.898,2.398-2.552,2.465C9.03,40.074,7.899,40.037,6.769,40.038z"></path><path fill="#1A1A1A" d="M57.212,35.266c1.171,0,2.345-0.046,3.514,0.012c1.532,0.076,2.393,0.954,2.402,2.336   c0.009,1.367-0.862,2.35-2.355,2.396c-2.382,0.074-4.77,0.072-7.153,0.004c-1.466-0.041-2.346-1.043-2.335-2.418   c0.011-1.378,0.883-2.252,2.413-2.32C54.868,35.224,56.041,35.265,57.212,35.266z"></path><path fill="#1A1A1A" d="M55.011,16.789c-0.002-0.003-0.005-0.006-0.007-0.008c-0.035-0.581-0.293-1.138-0.762-1.573   c-0.515-0.477-1.123-0.689-1.737-0.634c-0.624-0.067-1.25,0.237-1.752,0.73c-1.724,1.693-3.435,3.402-5.099,5.153   c-0.532,0.56-0.768,1.225-0.734,1.864c-0.002,0.004-0.004,0.007-0.006,0.011c0.002,0.003,0.005,0.006,0.007,0.008   c0.035,0.581,0.293,1.138,0.762,1.573c0.515,0.477,1.123,0.689,1.737,0.634c0.624,0.067,1.25-0.237,1.752-0.73   c1.724-1.693,3.435-3.402,5.099-5.153c0.532-0.56,0.768-1.225,0.735-1.864C55.007,16.796,55.009,16.793,55.011,16.789z"></path><path fill="#1A1A1A" d="M7.987,17.52c0.002-0.003,0.004-0.006,0.006-0.009c-0.029-0.581,0.166-1.164,0.585-1.647   c0.46-0.531,1.04-0.808,1.656-0.821c0.613-0.135,1.268,0.098,1.822,0.533c1.9,1.493,3.788,3.003,5.635,4.561   c0.59,0.498,0.898,1.133,0.935,1.772c0.002,0.004,0.004,0.007,0.007,0.011c-0.002,0.003-0.004,0.006-0.006,0.009   c0.029,0.581-0.166,1.164-0.585,1.647c-0.46,0.531-1.04,0.808-1.656,0.821c-0.613,0.135-1.268-0.098-1.822-0.533   c-1.9-1.493-3.788-3.003-5.635-4.561c-0.59-0.498-0.898-1.133-0.935-1.772C7.992,17.527,7.99,17.523,7.987,17.52z"></path><path fill="#1A1A1A" d="M34.311,12.133c0,1.21,0.039,2.423-0.01,3.631c-0.059,1.482-0.997,2.374-2.366,2.342   c-1.319-0.03-2.207-0.893-2.235-2.341c-0.048-2.462-0.052-4.926-0.002-7.388c0.027-1.348,1.075-2.335,2.3-2.33   c1.236,0.004,2.244,0.974,2.306,2.329c0.057,1.25,0.012,2.504,0.012,3.756C34.314,12.133,34.312,12.133,34.311,12.133z"></path></g></svg>