<svg xmlns="http://www.w3.org/2000/svg" width="100pt" height="100pt" version="1.1" viewBox="0 0 100 100"><path d="m50 5c-24.898 0-45 20.102-45 45s20.102 45 45 45 45-20.102 45-45-20.102-45-45-45zm-3 18.102c1.1992-1.1992 2.6992-1.8008 4.3984-1.8008 1.6992 0 3.1016 0.60156 4.3008 1.8008 1.1992 1.1992 1.8008 2.6992 1.8008 4.3984s-0.60156 3.1992-1.8008 4.3984c-1.1992 1.1992-2.6992 1.8008-4.3008 1.8008-1.6992 0-3.1992-0.60156-4.3984-1.8008-1.1992-1.1992-1.8008-2.6992-1.8008-4.3984s0.5-3.1992 1.8008-4.3984zm13.602 53.199h-19v-1.8984c1.3984-0.19922 2.3984-0.60156 2.8984-1.1016 0.80078-0.69922 1.1992-2 1.1992-3.8008v-23.301c0-1.6016-0.30078-2.6992-0.80078-3.3008-0.5-0.60156-1.6016-1-3.1992-1.3008v-1.8984h15.301v30.199c0 1.6992 0.30078 2.8984 0.80078 3.3008 0.5 0.5 1.5 0.89844 2.8984 1.1992v1.9023z"/></svg>