<svg xmlns="http://www.w3.org/2000/svg" width="100pt" height="100pt" version="1.1" viewBox="0 0 100 100"><path d="m46.699 66.828l4.4219 4.4219c0.96875 1.0117 2.3164 1.5703 3.7188 1.5391h5.2305v4.4219c0 3.3125 2.6875 6 6 6h4.4219v5.2188h-0.003907c0.007813 1.375 0.54688 2.6992 1.5117 3.6797l3.4688 3.4688c0.92188 0.91406 2.1641 1.4258 3.4609 1.4219h13.781c2.3711-0.003906 4.293-1.9258 4.3008-4.3008v-13.777c0.003906-1.3086-0.51562-2.5625-1.4414-3.4805l-28.742-28.742c3.3125-9.4375 2.1445-19.867-3.1719-28.34-5.3164-8.4688-14.203-14.055-24.141-15.18-9.9375-1.1211-19.844 2.3477-26.914 9.4219-7.0742 7.0703-10.543 16.977-9.4219 26.914 1.125 9.9375 6.7109 18.824 15.18 24.141 8.4727 5.3164 18.902 6.4844 28.34 3.1719zm-29.852-50h0.003906c5.918-5.9258 14.262-8.75 22.562-7.6367 8.3008 1.1133 15.605 6.0352 19.758 13.309 4.1484 7.2734 4.668 16.07 1.3984 23.781-0.47656 1.125-0.22266 2.4258 0.64063 3.2891l29.789 29.801v11.629h-11.629l-2.9297-2.9297v-7.0703c0-2.1328-1.7305-3.8594-3.8633-3.8594h-6.5117l0.003906-6.4922c0-2.1289-1.7266-3.8594-3.8594-3.8594h-7.0625l-5.5781-5.5781c-0.86328-0.86328-2.1641-1.1172-3.2891-0.64063-7.7109 3.2617-16.5 2.7383-23.773-1.4102-7.2695-4.1523-12.188-11.457-13.301-19.754-1.1094-8.2969 1.7109-16.637 7.6328-22.555zm12.562 23.594c4.4492 0 8.4609-2.6836 10.164-6.793 1.6992-4.1094 0.76172-8.8398-2.3867-11.988-3.1445-3.1445-7.875-4.0859-11.988-2.3828-4.1094 1.7031-6.7891 5.7148-6.7891 10.164 0 6.0742 4.9258 11 11 11zm0-15.922c2.0234 0 3.8438 1.2188 4.6211 3.0859 0.77344 1.8672 0.34375 4.0195-1.0859 5.4492-1.4297 1.4297-3.582 1.8594-5.4492 1.0859-1.8672-0.77734-3.0859-2.5977-3.0859-4.6211-0.003906-1.3281 0.52344-2.6016 1.4609-3.543 0.9375-0.9375 2.2109-1.4688 3.5391-1.4688z"/></svg>