<svg xmlns="http://www.w3.org/2000/svg" width="100pt" height="100pt" version="1.1" viewBox="0 0 100 100"><g><path d="m89.336 5.6016c-5.207-4.1641-11.836-6.1289-18.473-5.4766s-12.754 3.8711-17.051 8.9688l-7.4766 8.9492c-2.2617 2.7031-1.8984 6.7266 0.80469 8.9883 2.7031 2.2578 6.7266 1.8984 8.9844-0.80859l7.4766-8.9492c2.207-2.6328 5.3828-4.2617 8.8086-4.5156 3.4258-0.25391 6.8086 0.89063 9.3789 3.168 5.0898 4.7305 5.5547 12.625 1.0625 17.922l-15.547 18.613-0.14453 0.16016v-0.003906c-0.82812 0.96484-1.8008 1.793-2.8828 2.4609-5.1602 3.1992-11.859 2.3047-15.996-2.1367-2.4023-2.5703-6.4297-2.707-9.0078-0.3125-2.5742 2.3984-2.7188 6.4297-0.32813 9.0078 5.8633 6.2891 14.496 9.1992 22.969 7.7383 1.3047-0.22656 2.5898-0.55859 3.8438-0.98047 4.4297-1.4961 8.3594-4.1875 11.355-7.7812l15.508-18.562v0.003907c4.4531-5.375 6.5781-12.305 5.9062-19.254-0.61328-6.7383-3.9297-12.941-9.1914-17.199z"/><path d="m43.43 74.523-6.6836 8 0.003906-0.003907c-4.4141 5.3672-12.27 6.3086-17.828 2.1406-2.6992-2.125-4.4219-5.25-4.7812-8.6641-0.35938-3.418 0.67969-6.832 2.875-9.4688l15.816-18.93 0.11719-0.12891h-0.003907c0.83203-0.96484 1.8047-1.793 2.8867-2.4609 4.6523-2.9023 10.641-2.4844 14.844 1.0352 0.48828 0.41016 0.94922 0.85547 1.375 1.3359 1.2266 1.3906 3.0039 2.1758 4.8594 2.1484 1.832-0.023438 3.5625-0.84766 4.7422-2.2578l0.078125-0.09375-0.003907 0.003907c2.0195-2.3906 1.9727-5.8984-0.10547-8.2383-4.9141-5.5625-12.012-8.707-19.434-8.6055-7.4219 0.10156-14.43 3.4375-19.191 9.1328l-15.77 18.875c-4.2539 5.1367-6.332 11.73-5.793 18.379 0.53516 6.6445 3.6484 12.82 8.6758 17.203 5.1211 4.4219 11.816 6.582 18.559 5.9883 0.79688-0.0625 1.5859-0.16406 2.3672-0.30469 6.0625-1.0625 11.562-4.2266 15.527-8.9336l6.6602-7.9727c2.2578-2.7031 1.8984-6.7266-0.80859-8.9844-2.7031-2.2578-6.7266-1.8984-8.9844 0.80469z"/></g></svg>