<svg xmlns="http://www.w3.org/2000/svg" width="100pt" height="100pt" version="1.1" viewBox="0 0 100 100"><path d="m23.641 0h52.73c0.09375 0.078125 0.20312 0.14453 0.32031 0.19141 2.8203 0.73047 4.7344 3.3555 4.5586 6.2695v87.281-0.003907c0.074219 1.8867-0.76172 3.6914-2.25 4.8516-0.83203 0.54688-1.7148 1.0195-2.6289 1.4102h-52.73c-0.097656-0.078125-0.20703-0.14062-0.32031-0.19141-2.8242-0.73047-4.7344-3.3555-4.5586-6.2695v-87.379c-0.0625-1.8516 0.76953-3.6211 2.2383-4.75 0.83594-0.54688 1.7188-1.0195 2.6406-1.4102zm51.359 15.691h-49.922v68.637h49.922zm-25-6.3125h10.531c1.1992 0 1.8789-0.58984 1.9102-1.5195s-0.67969-1.6016-1.9219-1.6016l-21.059 0.003907c-1.1914 0-1.8789 0.58984-1.8984 1.5195s0.67969 1.5586 1.9219 1.6094h10.516zm0 78.172c-1.875-0.011719-3.5742 1.1055-4.3047 2.832-0.73047 1.7266-0.34766 3.7227 0.96484 5.0586 1.3164 1.3398 3.3047 1.7539 5.043 1.0508 1.7383-0.69922 2.8867-2.3789 2.9062-4.2539 0.011719-1.2305-0.46875-2.418-1.332-3.2969-0.86719-0.87891-2.043-1.3789-3.2773-1.3906z"/></svg>