<svg width="100pt" height="100pt" version="1.1" viewBox="0 0 100 100" xmlns="http://www.w3.org/2000/svg">
 <g>
  <path d="m50 32.398c-9.6992 0-17.602 7.8984-17.602 17.602 0 9.6992 7.8984 17.602 17.602 17.602 9.6992 0 17.602-7.8984 17.602-17.602 0-9.6992-7.9023-17.602-17.602-17.602zm0 3c1 0 2.8008 2.8984 3.6992 8.3984h-7.3008c0.80078-5.4961 2.6016-8.3984 3.6016-8.3984zm-14.602 14.602c0-1.1016 0.10156-2.1992 0.39844-3.1992h7.2031c-0.10156 1.1016-0.10156 2.1016-0.10156 3.1992 0 1.1016 0 2.1016 0.10156 3.1992h-7.3008c-0.19922-1-0.30078-2.0977-0.30078-3.1992zm1.4023 6.1992h6.6016c0.39844 3 1.1016 5.6016 2.1016 7.6992-3.9023-1.2969-7.0039-4.0977-8.7031-7.6992zm6.5-12.398h-6.5c1.6992-3.6016 4.8008-6.3984 8.6992-7.6992-1 2.0977-1.6992 4.7969-2.1992 7.6992zm6.6992 20.801c-1 0-2.8008-2.8984-3.6992-8.3984h7.3008c-0.80078 5.4961-2.6016 8.3984-3.6016 8.3984zm4-11.402h-8c-0.10156-1-0.10156-2.1016-0.10156-3.1992 0-1.1016 0-2.1992 0.10156-3.1992h8c0.10156 1 0.10156 2.1016 0.10156 3.1992 0 1.1016 0 2.1992-0.10156 3.1992zm0.5 10.602c1-2 1.6992-4.6992 2.1016-7.6992h6.6016c-1.7031 3.6992-4.8047 6.5-8.7031 7.6992zm10.102-13.801c0 1.1016-0.10156 2.1992-0.39844 3.1992h-7.2031c0.10156-1.1016 0.10156-2.1016 0.10156-3.1992 0-1.1016 0-2.1016-0.10156-3.1992h7.3008c0.19922 1 0.30078 2.0977 0.30078 3.1992zm-7.9023-6.1992c-0.39844-3-1.1016-5.6016-2.1016-7.6992 3.8008 1.3008 7 4 8.6992 7.6992z"/>
  <path d="m17.898 47.801c0 4.8008-7.1992 4.8008-7.1992 0s7.1992-4.8008 7.1992 0"/>
  <path d="m85.699 38.199c-1.6016 0-3.1992 0.30078-4.6016 0.89844l-6.0977-10.598c2.8008-2.1992 4.6992-5.5 4.6992-9.3984 0-6.5-5.3008-11.801-11.801-11.801-6 0-10.898 4.5-11.699 10.398h-12.301c-0.69922-5.8008-5.6992-10.398-11.699-10.398-6.5 0-11.801 5.3008-11.801 11.801 0 3.8008 1.8984 7.1992 4.6992 9.3984l-6.1016 10.602c-1.3984-0.60156-3-0.89844-4.6016-0.89844-6.5938-0.003906-11.895 5.2969-11.895 11.797s5.3008 11.801 11.801 11.801c1.6016 0 3.1992-0.30078 4.6016-0.89844l6.0977 10.598c-2.8008 2.1992-4.6992 5.5-4.6992 9.3984 0 6.5 5.3008 11.801 11.801 11.801 6 0 10.898-4.5 11.699-10.398h12.199c0.69922 5.8008 5.6992 10.398 11.699 10.398 6.5 0 11.801-5.3008 11.801-11.801 0-3.8008-1.8984-7.1992-4.6992-9.3984l6.1016-10.602c1.3984 0.60156 3 0.89844 4.6016 0.89844 6.5 0 11.801-5.3008 11.801-11.801 0.19531-6.4961-5.1055-11.797-11.605-11.797zm-17.898-27.898c4.8984 0 8.8984 4 8.8984 8.8984 0 2.8984-1.3984 5.3984-3.5 7l-0.19922-1.3008c-0.19922-1.8984-1.8984-3.3984-3.8008-3.3984h-2.6992c-1.8984 0-3.6016 1.5-3.8008 3.3984l-0.10156 1.1992c-2.1016-1.6016-3.5-4.1992-3.5-7.1016-0.19922-4.7969 3.8008-8.6953 8.7031-8.6953zm-44.5 8.8008c0-4.8984 4-8.8984 8.8984-8.8984 4.8984 0 8.8984 4 8.8984 8.8984 0 2.8984-1.3984 5.3984-3.5 7.1016l-0.10156-1.1992c-0.19922-1.8984-1.8984-3.3984-3.8008-3.3984h-2.6992c-1.8984 0-3.6016 1.5-3.8008 3.3984l-0.10156 1.1992c-2.293-1.7031-3.793-4.2031-3.793-7.1016zm-3.6016 37.898-0.10156-1.1992c-0.19922-1.8984-1.8984-3.3984-3.8008-3.3984l-2.7969-0.003906c-1.8984 0-3.6016 1.5-3.8008 3.3984l-0.19922 1.2031c-2.1016-1.6016-3.5-4.1992-3.5-7 0-4.8984 4-8.8984 8.8984-8.8984 4.8984 0 8.8984 4 8.8984 8.8984-0.097656 2.8984-1.4961 5.3984-3.5977 7zm17.801 30.898-0.10156-1.1992c-0.19922-1.8984-1.8984-3.3984-3.8008-3.3984h-2.6992c-1.8984 0-3.6016 1.5-3.8008 3.3984l-0.10156 1.1992c-2.1016-1.6016-3.5-4.1992-3.5-7.1016 0-4.8984 4-8.8984 8.8984-8.8984 4.8984 0 8.8984 4 8.8984 8.8984-0.19141 3.0039-1.5938 5.5039-3.793 7.1016zm39.199-7c0 2.8984-1.3984 5.3984-3.5 7l-0.19922-1.1992c-0.19922-1.8984-1.8984-3.3984-3.8008-3.3984h-2.6992c-1.8984 0-3.6016 1.5-3.8008 3.3984l-0.10156 1.1992c-2.1016-1.6016-3.5-4.1992-3.5-7.1016 0-4.8984 4-8.8984 8.8984-8.8984 4.7031 0.10156 8.7031 4.1016 8.7031 9zm-4.3008-10.898c-1.3984-0.60156-3-0.89844-4.6016-0.89844-6 0-10.898 4.5-11.699 10.398h-12.199c-0.69922-5.8984-5.6992-10.5-11.699-10.5-1.6016 0-3.1992 0.30078-4.6016 0.89844l-6.1016-10.602c2.8008-2.1992 4.6992-5.5 4.6992-9.3984 0-3.8008-1.8984-7.1992-4.6992-9.3984l6.1055-10.5c1.3984 0.60156 3 0.89844 4.6016 0.89844 6 0 10.898-4.5 11.699-10.398h12.199c0.69922 5.8984 5.6992 10.5 11.699 10.5 1.6016 0 3.1992-0.30078 4.6016-0.89844l6.1016 10.602c-2.8008 2.1992-4.6992 5.5-4.6992 9.3984 0 3.8008 1.8984 7.1992 4.6992 9.3984zm18.602-13-0.10156-1.1992c-0.19922-1.8984-1.8984-3.3984-3.8008-3.3984h-2.6992c-1.8984 0-3.6016 1.5-3.8008 3.3984l-0.29688 1.1992c-2.1016-1.6016-3.5-4.1992-3.5-7 0-4.8984 4-8.8984 8.8984-8.8984 4.8984 0 8.8984 4 8.8984 8.8984-0.097656 2.8984-1.4961 5.3984-3.5977 7z"/>
  <path d="m89.301 47.801c0 4.8008-7.1992 4.8008-7.1992 0s7.1992-4.8008 7.1992 0"/>
  <path d="m35.801 16.898c0 4.8008-7.1992 4.8008-7.1992 0 0-4.7969 7.1992-4.7969 7.1992 0"/>
  <path d="m71.398 16.898c0 4.8008-7.1992 4.8008-7.1992 0 0-4.7969 7.1992-4.7969 7.1992 0"/>
  <path d="m35.801 78.699c0 4.8008-7.1992 4.8008-7.1992 0s7.1992-4.8008 7.1992 0"/>
  <path d="m71.398 78.699c0 4.8008-7.1992 4.8008-7.1992 0s7.1992-4.8008 7.1992 0"/>
 </g>
</svg>