<svg xmlns="http://www.w3.org/2000/svg" xmlns:xlink="http://www.w3.org/1999/xlink" width="82" height="82" version="1.1" viewBox="0 0 82 82"><g fill="none" fill-rule="evenodd" stroke="none" stroke-width="1"><g fill="#000"><g transform="translate(-949.000000, -389.000000) translate(949.000000, 389.000000)"><path id="Fill-1" d="M78.5,0.375 L3.5,0.375 C1.7734,0.375 0.375,1.7734 0.375,3.5 L0.375,78.5 C0.375,80.2266 1.7734,81.625 3.5,81.625 L78.5,81.625 C80.2266,81.625 81.625,80.2266 81.625,78.5 L81.625,3.5 C81.625,1.7734 80.2266,0.375 78.5,0.375 Z M75.375,75.375 L6.625,75.375 L6.625,6.625 L75.375,6.625 L75.375,75.375 Z"/><path id="Fill-2" d="M19.4,65 L31.4,65 C32.7260288,65 33.8,63.9260288 33.8,62.6 C33.8,61.2739712 32.7260288,60.2 31.4,60.2 L25.193024,60.2 L60.2,25.193024 L60.2,31.4 C60.2,32.7260288 61.2739712,33.8 62.6,33.8 C63.9260288,33.8 65,32.7260288 65,31.4 L65,19.4 C65,18.0739712 63.9260288,17 62.6,17 L50.6,17 C49.2739712,17 48.2,18.0739712 48.2,19.4 C48.2,20.7260288 49.2739712,21.8 50.6,21.8 L56.806976,21.8 L21.8,56.806976 L21.8,50.6 C21.8,49.2739712 20.7260288,48.2 19.4,48.2 C18.0739712,48.2 17,49.2739712 17,50.6 L17,62.6 C17,63.9260288 18.0739712,65 19.4,65 Z"/></g></g></g></svg>