<svg xmlns="http://www.w3.org/2000/svg" xmlns:xlink="http://www.w3.org/1999/xlink" width="94" height="94" version="1.1" viewBox="0 0 94 94"><g fill="none" fill-rule="evenodd" stroke="none" stroke-width="1"><path id="Fill-1" fill="#000" d="M31.249799,12.50007 C31.249799,14.52737 31.753709,16.46887 32.616999,18.16417 L12.792999,35.05917 C11.726599,34.63339 10.589899,34.37558 9.374999,34.37558 C4.2148,34.37558 -7.10542736e-15,38.59038 -7.10542736e-15,43.75058 C-7.10542736e-15,48.91078 4.2148,53.12558 9.374999,53.12558 C10.378899,53.12558 11.296899,52.93417 12.206999,52.6373 L29.589999,81.5433 C28.699379,82.8128 28.125199,84.2777 28.125199,85.9378 C28.125199,90.2347 31.640799,93.750301 35.937699,93.750301 C39.832199,93.750301 43.078299,90.8519 43.652499,87.1097 L75.000499,76.6607 C76.301299,77.63336 77.949699,78.1255 79.687999,78.1255 C83.984899,78.1255 87.500499,74.6099 87.500499,70.313 C87.500499,68.5786 86.902839,67.0239 85.937999,65.7232 L88.965299,26.9532 C91.816899,25.3399 93.750499,22.2462 93.750499,18.7501 C93.750499,13.5899 89.535699,9.3751 84.375499,9.3751 C81.695799,9.3751 79.250499,10.5899 77.539599,12.4024 L55.664599,9.1797 C54.168499,3.9492 49.449799,1.42108547e-14 43.750599,1.42108547e-14 C36.863099,1.42108547e-14 31.249799,5.61337 31.249799,12.50007 Z M43.749799,3.12507 C48.945099,3.12507 53.124799,7.30477 53.124799,12.50007 C53.124799,17.69537 48.945099,21.87507 43.749799,21.87507 C38.554499,21.87507 34.374799,17.69537 34.374799,12.50007 C34.374799,7.30477 38.554499,3.12507 43.749799,3.12507 Z M56.249799,12.40231 L75.780799,15.23437 C75.327679,16.33207 74.999549,17.49217 74.999549,18.74997 C74.999549,21.55467 76.257349,24.05857 78.222249,25.78117 L58.984249,45.01917 C57.757649,44.21839 56.253749,43.74967 54.687349,43.74967 C51.593549,43.74967 48.917849,45.61297 47.656149,48.24187 L18.554149,45.60517 C18.667429,45.02314 18.749459,44.36297 18.749459,43.74967 C18.749459,40.97237 17.558059,38.53487 15.624459,36.81607 L34.374459,20.70307 C36.667459,23.34757 39.987759,24.99997 43.749459,24.99997 C50.636159,24.99997 56.249459,19.38667 56.249459,12.49997 L56.249459,12.40231 L56.249799,12.40231 Z M80.956799,27.44103 C82.030999,27.87072 83.152099,28.12462 84.374799,28.12462 C84.816209,28.12462 85.218549,28.08555 85.644299,28.02696 L83.007599,63.28096 C81.999799,62.8044 80.866999,62.49971 79.687299,62.49971 C78.027099,62.49971 76.464599,63.07002 75.195099,63.96451 L61.328099,55.56611 C62.035129,54.39421 62.499999,53.02311 62.499999,51.56221 C62.499999,49.95281 61.976559,48.51141 61.132799,47.26531 L80.956799,27.44103 Z M9.374799,37.50003 C12.843599,37.50003 15.624798,40.28123 15.624798,43.75003 C15.624798,47.21883 12.843599,50.00003 9.374799,50.00003 C5.905998,50.00003 3.124798,47.21883 3.124798,43.75003 C3.124798,40.28123 5.905998,37.50003 9.374799,37.50003 Z M17.381799,48.6328 L46.873799,51.26953 C46.869889,51.36718 46.873799,51.46484 46.873799,51.5625 C46.873799,55.8594 50.389399,59.375 54.686299,59.375 C56.401099,59.375 57.983199,58.85547 59.276099,57.9102 L73.143099,66.211 C72.373569,67.4219 71.873599,68.7813 71.873599,70.3126 C71.873599,71.6564 72.248599,72.9181 72.850159,74.0235 L43.358159,83.7891 C42.408939,80.543 39.475359,78.125 35.936259,78.125 C34.479259,78.125 33.104259,78.59375 31.932359,79.2969 L15.135359,51.1719 C16.037699,50.46878 16.783759,49.6133 17.381459,48.6328 L17.381799,48.6328 Z M79.686799,65.62483 C82.292299,65.62483 84.374299,67.70293 84.374299,70.31233 C84.374299,72.92173 82.292299,74.99983 79.686799,74.99983 C77.081299,74.99983 74.999299,72.92173 74.999299,70.31233 C74.999299,67.70293 77.081299,65.62483 79.686799,65.62483 Z M35.936799,81.24983 C38.542299,81.24983 40.624299,83.32793 40.624299,85.93733 C40.624299,88.546726 38.542299,90.624826 35.936799,90.624826 C33.331299,90.624826 31.249299,88.546726 31.249299,85.93733 C31.249299,83.32793 33.331299,81.24983 35.936799,81.24983 Z"/></g></svg>