<svg width="131px" height="112px" viewBox="0 0 131 112" version="1.1" xmlns="http://www.w3.org/2000/svg" xmlns:xlink="http://www.w3.org/1999/xlink">
    <g stroke="none" stroke-width="1" fill="none" fill-rule="evenodd">
        <g transform="translate(-813.000000, -493.000000)" fill-rule="nonzero">
            <g transform="translate(813.000000, 493.000000)">
                <g id="chat" transform="translate(0.001272, 0.001269)">
                    <path d="M96.954535,94.1906396 C75.8636905,116.807801 40.4237794,118.045195 17.8066895,96.9544174 C-4.81040044,75.8636398 -6.04792411,40.423985 15.0429204,17.8068232 C36.133765,-4.81033852 71.5734159,-6.04797476 94.1905058,15.0428028 C101.548721,21.9044493 106.648637,30.2915497 109.448272,39.261277 C109.458068,39.291524 109.468612,39.3119129 109.477272,39.3252666 L109.494966,39.3470446 L109.494966,39.3470446 L126.46347,47.7304519 C131.16809,50.0570267 131.399421,56.6824038 126.86857,59.3315254 L110.526171,68.8782281 L110.510039,68.9011873 C110.502331,68.9151126 110.493235,68.9361874 110.485573,68.9670441 C108.371178,77.8873315 104.033891,86.4072619 97.452133,93.6500955 L96.954535,94.1906396 Z" id="Path" fill="#F4F6F7"></path>
                    <path d="M89.640998,87.370656 C72.3163757,105.949039 43.2050202,106.965469 24.6266963,89.640902 C6.04837244,72.3163347 5.03183515,43.2051897 22.3564574,24.6268068 C39.6810797,6.04842396 68.7922216,5.0317942 87.3705454,22.3563615 C93.4147935,27.992714 97.6040107,34.8821179 99.9037101,42.2501081 C99.9198036,42.2997996 99.9383563,42.3171003 99.9420664,42.3205601 L113.88048,49.2069304 C117.74499,51.1180454 117.935011,56.5603194 114.213241,58.7363836 L100.789127,66.5783179 L100.769251,66.6106537 C100.764695,66.6210497 100.759975,66.6343763 100.755779,66.651274 C99.0263986,73.9472499 95.4866877,80.9171739 90.119149,86.8500867 L89.640998,87.370656 Z" id="Path" fill="#000000"></path>
                    <path d="M85.9843905,83.9604914 C91.0140488,78.5668433 94.3088624,72.1854559 95.891364,65.4987645 C96.232682,64.0581505 97.137316,62.7573927 98.4840035,61.9670384 L112.048413,54.0414305 L97.9641604,47.0812953 C96.5656278,46.3867929 95.5724772,45.1523416 95.1314656,43.7390183 C93.0856815,37.1781887 89.3540267,31.042625 83.9607468,26.0133102 C67.4010259,10.5711205 41.4553711,11.4771254 26.013226,28.0367986 C10.5710808,44.5964719 11.4771604,70.5421241 28.0368813,85.9843137 C44.5964296,101.426342 70.5422454,100.520165 85.9843905,83.9604914 Z" id="Path" fill="#F4F6F7"></path>
                </g>
                <path d="M61.383,75.691 C61.383,82.8707 50.617,82.8707 50.617,75.691 C50.617,68.5113 61.383,68.5113 61.383,75.691 Z M55.804738,31.58242 C60.421938,31.58242 64.113338,32.77382 66.843738,35.19962 C69.574238,37.62152 70.960938,40.43012 70.960938,43.66052 C70.960938,45.43002 70.460938,47.12142 69.460938,48.69962 C68.460938,50.27782 66.308638,52.46912 63.000038,55.19962 C61.308638,56.62152 60.230538,57.73872 59.847738,58.62152 C59.461018,59.50043 59.269618,60.65272 59.308678,62.84812 L52.0004,62.84812 C51.9703523,62.04872 51.9634182,61.4782667 51.9618181,61.1526364 L51.961338,60.9261 L51.961338,60.9261 C51.961338,58.5433 52.344148,57.0042 53.152738,55.4652 C53.922268,53.9261 55.500438,52.1957 57.844138,50.3129 C60.191838,48.391 61.613638,47.1606 62.074638,46.5434 C62.766048,45.62152 63.152738,44.5825 63.152738,43.4262 C63.152738,41.8481 62.535548,40.5043 61.269938,39.3871 C60.000438,38.2699 58.348038,37.6957 56.191838,37.6957 C54.152738,37.6957 52.422338,38.27383 51.039538,39.4652 C49.656738,40.6175 48.730938,42.4261 48.191838,44.8129 L40.769938,43.89102 C40.961348,40.46912 42.422238,37.54332 45.152738,35.16052 C47.844138,32.77772 51.422238,31.58242 55.804738,31.58242 Z" id="Combined-Shape" fill="#000000"></path>
            </g>
        </g>
    </g>
</svg>