<svg xmlns="http://www.w3.org/2000/svg" xmlns:xlink="http://www.w3.org/1999/xlink" width="56" height="66" version="1.1" viewBox="0 0 56 66"><title>file-upload</title><g id="File-Icons" fill="none" fill-rule="evenodd" stroke="none" stroke-width="1"><g id="Mobile" fill="#000" fill-rule="nonzero" transform="translate(-288.000000, -120.000000)"><g id="file-upload" transform="translate(288.000000, 120.000000)"><polygon id="Shape" points="49.59 6.09 44 .5 .828 .5 .828 50.79 5.828 50.79 5.828 5.5 42 5.5 50.211 13.711 50.211 60.5 5.828 60.5 5.828 48.75 .828 48.75 .828 65.5 55.172 65.5 55.172 11.621"/><path id="Path" d="M29.4286128,26.1205735 L29.4286128,43.4982364 C29.4286128,44.3278458 28.7884437,45 28.0009711,45 C27.2108311,45 26.5706552,44.327853 26.5706552,43.4982364 L26.5706552,26.1205735 L20.4394759,32.5608274 C19.882339,33.1457945 18.9770003,33.1457945 18.4198635,32.5608274 C17.8600455,31.9758603 17.8600455,31.0252977 18.4198635,30.4403306 L26.9911992,21.4408366 C27.548336,20.8530545 28.4536748,20.8530545 29.0108116,21.4408366 L37.5821474,30.4403306 C38.1392842,31.0252977 38.1392842,31.9758603 37.5821474,32.5608274 C37.0250106,33.1457945 36.1196718,33.1457945 35.562535,32.5608274 L29.4286128,26.1205735 Z"/></g></g></g></svg>