<?xml version="1.0" encoding="UTF-8"?>
<svg xmlns="http://www.w3.org/2000/svg" xmlns:xlink="http://www.w3.org/1999/xlink" width="1080pt" height="299.999988pt" viewBox="0 0 1080 299.999988" version="1.2">
<defs>
<filter id="alpha" filterUnits="objectBoundingBox" x="0%" y="0%" width="100%" height="100%">
  <feColorMatrix type="matrix" in="SourceGraphic" values="0 0 0 0 1 0 0 0 0 1 0 0 0 0 1 0 0 0 1 0"/>
</filter>
<mask id="mask0">
  <g filter="url(#alpha)">
<rect x="0" y="0" width="1080" height="299.999988" style="fill:rgb(0%,0%,0%);fill-opacity:0.698;stroke:none;"/>
  </g>
</mask>
<clipPath id="clip2">
  <path d="M 0.886719 0 L 260.386719 0 L 260.386719 224.355469 L 0.886719 224.355469 Z M 0.886719 0 "/>
</clipPath>
<clipPath id="clip1">
  <rect x="0" y="0" width="262" height="225"/>
</clipPath>
<g id="surface5" clip-path="url(#clip1)">
<g clip-path="url(#clip2)" clip-rule="nonzero">
<path style=" stroke:none;fill-rule:nonzero;fill:rgb(100%,100%,100%);fill-opacity:1;" d="M 127.644531 11.167969 C 127.644531 12.746094 128.964844 14.066406 130.636719 14.066406 C 132.21875 14.066406 133.535156 12.746094 133.535156 11.078125 C 133.535156 9.410156 132.21875 8.179688 130.546875 8.179688 C 128.964844 8.179688 127.644531 9.496094 127.644531 11.167969 Z M 170.015625 11.167969 C 170.015625 12.746094 171.335938 14.066406 173.003906 14.066406 C 174.589844 14.066406 175.90625 12.746094 175.90625 11.078125 C 175.90625 9.410156 174.589844 8.179688 172.917969 8.179688 C 171.335938 8.179688 170.015625 9.496094 170.015625 11.167969 Z M 212.300781 11.167969 C 212.300781 12.746094 213.617188 14.066406 215.289062 14.066406 C 216.871094 14.066406 218.191406 12.746094 218.191406 11.078125 C 218.191406 9.410156 216.871094 8.179688 215.199219 8.179688 C 213.617188 8.179688 212.300781 9.496094 212.300781 11.167969 Z M 255.023438 11.167969 C 255.023438 12.570312 256.164062 13.625 257.570312 13.625 C 258.976562 13.625 260.03125 12.484375 260.03125 11.078125 C 260.03125 9.671875 258.890625 8.617188 257.484375 8.617188 C 256.078125 8.617188 255.023438 9.761719 255.023438 11.167969 Z M 85.363281 11.167969 C 85.363281 12.746094 86.679688 14.066406 88.265625 14.066406 C 89.847656 14.066406 91.164062 12.746094 91.164062 11.167969 C 91.164062 9.585938 89.847656 8.265625 88.265625 8.265625 C 86.679688 8.179688 85.363281 9.585938 85.363281 11.167969 Z M 1.238281 11.167969 C 1.238281 12.570312 2.378906 13.625 3.785156 13.625 C 5.191406 13.625 6.246094 12.484375 6.246094 11.078125 C 6.246094 9.671875 5.105469 8.617188 3.699219 8.617188 C 2.292969 8.617188 1.238281 9.761719 1.238281 11.167969 Z M 126.414062 95.355469 C 126.414062 97.464844 128.171875 99.21875 130.28125 99.21875 C 132.394531 99.21875 134.152344 97.464844 134.152344 95.355469 C 134.152344 93.246094 132.394531 91.488281 130.28125 91.488281 C 128.171875 91.488281 126.414062 93.246094 126.414062 95.355469 Z M 169.3125 95.355469 C 169.3125 97.199219 170.894531 98.78125 172.652344 98.78125 C 174.5 98.78125 175.90625 97.199219 175.90625 95.355469 C 175.90625 93.507812 174.324219 91.925781 172.652344 91.925781 C 170.71875 91.925781 169.3125 93.507812 169.3125 95.355469 C 169.136719 95.355469 169.136719 95.355469 169.3125 95.355469 Z M 211.859375 95.355469 C 211.859375 97.023438 213.265625 98.34375 214.847656 98.34375 C 216.519531 98.34375 217.839844 96.9375 217.839844 95.355469 C 217.839844 93.773438 216.429688 92.367188 214.847656 92.367188 C 213.179688 92.367188 211.859375 93.683594 211.859375 95.355469 Z M 254.671875 95.355469 C 254.671875 96.761719 255.8125 97.902344 257.21875 97.902344 C 258.625 97.902344 259.769531 96.761719 259.769531 95.355469 C 259.769531 93.949219 258.625 92.804688 257.21875 92.804688 C 255.8125 92.804688 254.671875 93.949219 254.671875 95.355469 Z M 84.660156 95.355469 C 84.660156 97.199219 86.242188 98.691406 88.089844 98.691406 C 89.933594 98.691406 91.429688 97.113281 91.429688 95.265625 C 91.429688 93.421875 89.847656 91.925781 88.089844 91.925781 C 86.152344 91.925781 84.660156 93.507812 84.660156 95.355469 C 84.570312 95.355469 84.570312 95.355469 84.660156 95.355469 Z M 0.886719 95.355469 C 0.886719 96.761719 2.027344 97.902344 3.433594 97.902344 C 4.839844 97.902344 5.984375 96.761719 5.984375 95.355469 C 5.984375 93.949219 4.839844 92.804688 3.433594 92.804688 C 2.027344 92.804688 0.886719 93.949219 0.886719 95.355469 Z M 127.644531 137.449219 C 127.644531 139.292969 129.140625 140.875 130.988281 140.875 C 132.832031 140.875 134.414062 139.382812 134.414062 137.535156 C 134.414062 135.691406 132.921875 134.109375 131.074219 134.109375 C 129.226562 134.109375 127.644531 135.601562 127.644531 137.449219 Z M 169.929688 137.449219 C 169.929688 139.292969 171.421875 140.875 173.269531 140.875 C 175.117188 140.875 176.699219 139.382812 176.699219 137.535156 C 176.699219 135.691406 175.203125 134.109375 173.355469 134.109375 C 171.511719 134.109375 169.929688 135.601562 169.929688 137.449219 Z M 212.652344 137.449219 C 212.652344 139.03125 213.96875 140.4375 215.550781 140.4375 C 217.136719 140.4375 218.542969 139.117188 218.542969 137.535156 C 218.542969 135.953125 217.222656 134.546875 215.640625 134.546875 C 213.96875 134.546875 212.652344 135.867188 212.652344 137.449219 Z M 255.375 137.449219 C 255.375 138.855469 256.429688 139.996094 257.835938 139.996094 C 259.242188 139.996094 260.386719 138.941406 260.386719 137.535156 C 260.386719 136.128906 259.328125 134.988281 257.921875 134.988281 C 256.515625 134.988281 255.375 136.042969 255.375 137.449219 Z M 85.363281 137.449219 C 85.363281 139.292969 86.855469 140.789062 88.703125 140.789062 C 90.550781 140.789062 92.042969 139.292969 92.042969 137.449219 C 92.042969 135.601562 90.550781 134.109375 88.703125 134.109375 C 86.945312 134.109375 85.363281 135.601562 85.363281 137.449219 Z M 128.085938 179.542969 C 128.085938 181.125 129.402344 182.53125 130.988281 182.53125 C 132.570312 182.53125 133.976562 181.210938 133.976562 179.628906 C 133.976562 178.046875 132.65625 176.640625 131.074219 176.640625 C 129.402344 176.554688 127.996094 177.960938 128.085938 179.542969 C 127.996094 179.542969 127.996094 179.542969 128.085938 179.542969 Z M 170.367188 179.542969 C 170.367188 181.125 171.6875 182.53125 173.269531 182.53125 C 174.851562 182.53125 176.257812 181.210938 176.257812 179.628906 C 176.257812 178.046875 174.941406 176.640625 173.355469 176.640625 C 171.6875 176.554688 170.28125 177.960938 170.367188 179.542969 C 170.28125 179.542969 170.28125 179.542969 170.367188 179.542969 Z M 212.652344 179.542969 C 212.652344 181.125 213.96875 182.53125 215.550781 182.53125 C 217.136719 182.53125 218.542969 181.210938 218.542969 179.628906 C 218.542969 178.046875 217.222656 176.640625 215.640625 176.640625 C 213.96875 176.554688 212.5625 177.960938 212.652344 179.542969 C 212.5625 179.542969 212.5625 179.542969 212.652344 179.542969 Z M 255.375 179.542969 C 255.375 180.949219 256.429688 182.089844 257.835938 182.089844 C 259.242188 182.089844 260.386719 181.035156 260.386719 179.628906 C 260.386719 178.222656 259.328125 177.082031 257.921875 177.082031 C 256.429688 176.992188 255.285156 178.136719 255.375 179.542969 C 255.285156 179.542969 255.285156 179.542969 255.375 179.542969 Z M 43.519531 53.171875 C 43.519531 54.753906 44.839844 56.160156 46.421875 56.160156 C 48.003906 56.160156 49.410156 54.84375 49.410156 53.261719 C 49.410156 51.679688 48.089844 50.273438 46.507812 50.273438 C 44.839844 50.183594 43.429688 51.589844 43.519531 53.171875 C 43.429688 53.171875 43.429688 53.171875 43.519531 53.171875 Z M 1.675781 137.449219 C 1.675781 138.855469 2.730469 139.996094 4.136719 139.996094 C 5.542969 139.996094 6.6875 138.941406 6.6875 137.535156 C 6.6875 136.128906 5.632812 134.988281 4.226562 134.988281 C 2.730469 134.898438 1.589844 136.042969 1.675781 137.449219 C 1.589844 137.449219 1.589844 137.449219 1.675781 137.449219 Z M 128.4375 221.636719 C 128.4375 223.042969 129.492188 224.183594 130.898438 224.183594 C 132.304688 224.183594 133.449219 223.128906 133.449219 221.722656 C 133.449219 220.316406 132.394531 219.175781 130.988281 219.175781 C 129.578125 219.175781 128.4375 220.230469 128.4375 221.636719 Z M 170.71875 221.636719 C 170.71875 223.042969 171.773438 224.183594 173.179688 224.183594 C 174.589844 224.183594 175.730469 223.128906 175.730469 221.722656 C 175.730469 220.316406 174.675781 219.175781 173.269531 219.175781 C 171.863281 219.175781 170.71875 220.230469 170.71875 221.636719 Z M 213.003906 221.636719 C 213.003906 223.042969 214.058594 224.183594 215.464844 224.183594 C 216.871094 224.183594 218.015625 223.128906 218.015625 221.722656 C 218.015625 220.316406 216.957031 219.175781 215.550781 219.175781 C 214.144531 219.175781 213.003906 220.230469 213.003906 221.636719 Z M 255.285156 221.636719 C 255.285156 223.042969 256.339844 224.183594 257.746094 224.183594 C 259.152344 224.183594 260.296875 223.128906 260.296875 221.722656 C 260.296875 220.316406 259.242188 219.175781 257.835938 219.175781 C 256.429688 219.175781 255.285156 220.230469 255.285156 221.636719 Z M 43.960938 221.636719 C 43.960938 223.042969 45.101562 224.183594 46.421875 224.183594 C 47.738281 224.183594 48.882812 223.042969 48.882812 221.636719 C 48.882812 220.230469 47.738281 219.085938 46.421875 219.085938 C 45.015625 219.261719 43.960938 220.230469 43.960938 221.636719 Z M 86.242188 221.636719 C 86.242188 223.042969 87.386719 224.183594 88.703125 224.183594 C 90.023438 224.183594 91.164062 223.042969 91.164062 221.636719 C 91.164062 220.230469 90.023438 219.085938 88.703125 219.085938 C 87.296875 219.261719 86.242188 220.230469 86.242188 221.636719 Z M 1.589844 221.636719 C 1.589844 223.042969 2.644531 224.183594 4.050781 224.183594 C 5.457031 224.183594 6.597656 223.128906 6.597656 221.722656 C 6.597656 220.316406 5.542969 219.175781 4.136719 219.175781 C 2.730469 219.175781 1.589844 220.230469 1.589844 221.636719 Z M 127.207031 53.261719 C 127.207031 55.105469 128.699219 56.6875 130.636719 56.6875 C 132.570312 56.6875 134.0625 55.195312 134.0625 53.261719 C 134.0625 51.328125 132.570312 49.832031 130.636719 49.832031 C 128.699219 49.832031 127.207031 51.414062 127.207031 53.261719 Z M 169.488281 53.261719 C 169.488281 55.105469 171.070312 56.6875 172.917969 56.6875 C 174.765625 56.6875 176.347656 55.105469 176.347656 53.261719 C 176.347656 51.414062 174.765625 49.832031 172.917969 49.832031 C 171.070312 49.832031 169.488281 51.414062 169.488281 53.261719 Z M 212.210938 53.261719 C 212.210938 54.929688 213.617188 56.246094 215.199219 56.246094 C 216.871094 56.246094 218.191406 54.84375 218.191406 53.261719 C 218.191406 51.679688 216.78125 50.273438 215.199219 50.273438 C 213.617188 50.273438 212.210938 51.589844 212.210938 53.261719 Z M 255.023438 53.261719 C 255.023438 54.667969 256.164062 55.808594 257.570312 55.808594 C 258.976562 55.808594 260.121094 54.667969 260.121094 53.261719 C 260.121094 51.855469 258.976562 50.710938 257.570312 50.710938 C 256.078125 50.710938 255.023438 51.855469 255.023438 53.261719 Z M 43.167969 11.167969 C 43.167969 12.746094 44.488281 14.152344 46.070312 14.152344 C 47.652344 14.152344 48.96875 12.835938 48.96875 11.167969 C 48.96875 9.496094 47.652344 8.179688 46.070312 8.179688 C 44.398438 8.179688 43.167969 9.585938 43.167969 11.167969 Z M 84.921875 53.261719 C 84.921875 55.105469 86.503906 56.597656 88.351562 56.597656 C 90.199219 56.597656 91.691406 55.019531 91.691406 53.171875 C 91.691406 51.328125 90.109375 49.832031 88.265625 49.832031 C 86.417969 49.832031 84.921875 51.414062 84.921875 53.261719 Z M 1.148438 53.261719 C 1.148438 54.667969 2.292969 55.808594 3.609375 55.808594 C 5.015625 55.808594 6.160156 54.667969 6.160156 53.261719 C 6.160156 51.855469 5.015625 50.710938 3.609375 50.710938 C 2.292969 50.710938 1.148438 51.855469 1.148438 53.261719 Z M 128.171875 -30.925781 C 128.171875 -29.523438 129.316406 -28.46875 130.722656 -28.46875 C 132.128906 -28.46875 133.183594 -29.609375 133.183594 -31.015625 C 133.183594 -32.421875 132.042969 -33.476562 130.636719 -33.476562 C 129.226562 -33.476562 128.171875 -32.332031 128.171875 -30.925781 Z M 170.457031 -30.925781 C 170.457031 -29.523438 171.597656 -28.46875 173.003906 -28.46875 C 174.414062 -28.46875 175.46875 -29.609375 175.46875 -31.015625 C 175.46875 -32.421875 174.324219 -33.476562 172.917969 -33.476562 C 171.511719 -33.476562 170.457031 -32.332031 170.457031 -30.925781 Z M 212.738281 -30.925781 C 212.738281 -29.523438 213.882812 -28.46875 215.289062 -28.46875 C 216.695312 -28.46875 217.75 -29.609375 217.75 -31.015625 C 217.75 -32.421875 216.605469 -33.476562 215.199219 -33.476562 C 213.792969 -33.476562 212.738281 -32.332031 212.738281 -30.925781 Z M 255.023438 -30.925781 C 255.023438 -29.523438 256.164062 -28.46875 257.570312 -28.46875 C 258.976562 -28.46875 260.03125 -29.609375 260.03125 -31.015625 C 260.03125 -32.421875 258.890625 -33.476562 257.484375 -33.476562 C 256.078125 -33.476562 255.023438 -32.332031 255.023438 -30.925781 Z M 43.605469 -30.925781 C 43.605469 -29.609375 44.75 -28.46875 46.070312 -28.46875 C 47.386719 -28.46875 48.53125 -29.609375 48.53125 -30.925781 C 48.53125 -32.246094 47.386719 -33.386719 46.070312 -33.386719 C 44.664062 -33.476562 43.605469 -32.246094 43.605469 -30.925781 Z M 1.238281 -30.925781 C 1.238281 -29.523438 2.378906 -28.46875 3.785156 -28.46875 C 5.191406 -28.46875 6.246094 -29.609375 6.246094 -31.015625 C 6.246094 -32.421875 5.105469 -33.476562 3.699219 -33.476562 C 2.292969 -33.476562 1.238281 -32.332031 1.238281 -30.925781 Z M 85.800781 179.542969 C 85.800781 181.210938 87.121094 182.441406 88.703125 182.441406 C 90.285156 182.441406 91.605469 181.125 91.605469 179.542969 C 91.605469 177.960938 90.285156 176.640625 88.703125 176.640625 C 87.03125 176.554688 85.800781 177.960938 85.800781 179.542969 Z M 1.675781 179.542969 C 1.675781 180.949219 2.730469 182.089844 4.136719 182.089844 C 5.542969 182.089844 6.6875 181.035156 6.6875 179.628906 C 6.6875 178.222656 5.632812 177.082031 4.226562 177.082031 C 2.730469 176.992188 1.589844 178.136719 1.675781 179.542969 C 1.589844 179.542969 1.589844 179.542969 1.675781 179.542969 Z M 43.519531 95.265625 C 43.519531 96.847656 44.839844 98.253906 46.421875 98.253906 C 48.003906 98.253906 49.410156 96.9375 49.410156 95.355469 C 49.410156 93.773438 48.089844 92.367188 46.507812 92.367188 C 44.839844 92.277344 43.429688 93.683594 43.519531 95.265625 C 43.429688 95.265625 43.429688 95.265625 43.519531 95.265625 Z M 43.519531 137.449219 C 43.519531 139.03125 44.75 140.347656 46.421875 140.347656 C 48.003906 140.347656 49.320312 139.117188 49.320312 137.449219 C 49.320312 135.777344 48.089844 134.546875 46.421875 134.546875 C 44.839844 134.460938 43.519531 135.777344 43.519531 137.449219 Z M 43.519531 179.542969 C 43.519531 181.210938 44.839844 182.441406 46.421875 182.441406 C 48.003906 182.441406 49.320312 181.125 49.320312 179.542969 C 49.320312 177.960938 48.003906 176.640625 46.421875 176.640625 C 44.75 176.554688 43.519531 177.871094 43.519531 179.542969 Z M 85.890625 -30.925781 C 85.890625 -29.609375 87.03125 -28.46875 88.351562 -28.46875 C 89.671875 -28.46875 90.8125 -29.609375 90.8125 -30.925781 C 90.8125 -32.246094 89.671875 -33.386719 88.351562 -33.386719 C 86.945312 -33.476562 85.890625 -32.246094 85.890625 -30.925781 Z M 85.890625 -30.925781 "/>
</g>
</g>
<mask id="mask1">
  <g filter="url(#alpha)">
<rect x="0" y="0" width="1080" height="299.999988" style="fill:rgb(0%,0%,0%);fill-opacity:0.698;stroke:none;"/>
  </g>
</mask>
<clipPath id="clip4">
  <path d="M 0.292969 0 L 112.042969 0 L 112.042969 224.347656 L 0.292969 224.347656 Z M 0.292969 0 "/>
</clipPath>
<clipPath id="clip3">
  <rect x="0" y="0" width="130" height="225"/>
</clipPath>
<g id="surface8" clip-path="url(#clip3)">
<g clip-path="url(#clip4)" clip-rule="nonzero">
<path style=" stroke:none;fill-rule:nonzero;fill:rgb(100%,100%,100%);fill-opacity:1;" d="M 127.054688 11.160156 C 127.054688 12.742188 128.375 14.0625 130.042969 14.0625 C 131.625 14.0625 132.945312 12.742188 132.945312 11.074219 C 132.945312 9.402344 131.625 8.171875 129.957031 8.171875 C 128.375 8.171875 127.054688 9.492188 127.054688 11.160156 Z M 169.425781 11.160156 C 169.425781 12.742188 170.746094 14.0625 172.414062 14.0625 C 173.996094 14.0625 175.316406 12.742188 175.316406 11.074219 C 175.316406 9.402344 173.996094 8.171875 172.328125 8.171875 C 170.746094 8.171875 169.425781 9.492188 169.425781 11.160156 Z M 211.710938 11.160156 C 211.710938 12.742188 213.027344 14.0625 214.699219 14.0625 C 216.28125 14.0625 217.597656 12.742188 217.597656 11.074219 C 217.597656 9.402344 216.28125 8.171875 214.609375 8.171875 C 213.027344 8.171875 211.710938 9.492188 211.710938 11.160156 Z M 254.433594 11.160156 C 254.433594 12.566406 255.574219 13.621094 256.980469 13.621094 C 258.386719 13.621094 259.441406 12.480469 259.441406 11.074219 C 259.441406 9.667969 258.300781 8.613281 256.894531 8.613281 C 255.488281 8.613281 254.433594 9.753906 254.433594 11.160156 Z M 84.773438 11.160156 C 84.773438 12.742188 86.089844 14.0625 87.671875 14.0625 C 89.253906 14.0625 90.574219 12.742188 90.574219 11.160156 C 90.574219 9.578125 89.253906 8.261719 87.671875 8.261719 C 86.089844 8.171875 84.773438 9.578125 84.773438 11.160156 Z M 0.644531 11.160156 C 0.644531 12.566406 1.789062 13.621094 3.195312 13.621094 C 4.601562 13.621094 5.65625 12.480469 5.65625 11.074219 C 5.65625 9.667969 4.515625 8.613281 3.105469 8.613281 C 1.699219 8.613281 0.644531 9.753906 0.644531 11.160156 Z M 125.824219 95.347656 C 125.824219 97.457031 127.582031 99.214844 129.691406 99.214844 C 131.800781 99.214844 133.558594 97.457031 133.558594 95.347656 C 133.558594 93.238281 131.800781 91.484375 129.691406 91.484375 C 127.582031 91.484375 125.824219 93.238281 125.824219 95.347656 Z M 168.722656 95.347656 C 168.722656 97.195312 170.304688 98.777344 172.0625 98.777344 C 173.910156 98.777344 175.316406 97.195312 175.316406 95.347656 C 175.316406 93.503906 173.734375 91.921875 172.0625 91.921875 C 170.128906 91.921875 168.722656 93.503906 168.722656 95.347656 C 168.546875 95.347656 168.546875 95.347656 168.722656 95.347656 Z M 211.269531 95.347656 C 211.269531 97.019531 212.675781 98.335938 214.257812 98.335938 C 215.929688 98.335938 217.246094 96.929688 217.246094 95.347656 C 217.246094 93.765625 215.839844 92.363281 214.257812 92.363281 C 212.589844 92.363281 211.269531 93.679688 211.269531 95.347656 Z M 254.082031 95.347656 C 254.082031 96.753906 255.222656 97.898438 256.628906 97.898438 C 258.035156 97.898438 259.179688 96.753906 259.179688 95.347656 C 259.179688 93.941406 258.035156 92.800781 256.628906 92.800781 C 255.222656 92.800781 254.082031 93.941406 254.082031 95.347656 Z M 84.070312 95.347656 C 84.070312 97.195312 85.652344 98.6875 87.496094 98.6875 C 89.34375 98.6875 90.839844 97.105469 90.839844 95.261719 C 90.839844 93.414062 89.253906 91.921875 87.496094 91.921875 C 85.5625 91.921875 84.070312 93.503906 84.070312 95.347656 C 83.980469 95.347656 83.980469 95.347656 84.070312 95.347656 Z M 0.292969 95.347656 C 0.292969 96.753906 1.4375 97.898438 2.84375 97.898438 C 4.25 97.898438 5.394531 96.753906 5.394531 95.347656 C 5.394531 93.941406 4.25 92.800781 2.84375 92.800781 C 1.4375 92.800781 0.292969 93.941406 0.292969 95.347656 Z M 127.054688 137.441406 C 127.054688 139.289062 128.550781 140.871094 130.394531 140.871094 C 132.242188 140.871094 133.824219 139.375 133.824219 137.53125 C 133.824219 135.6875 132.328125 134.105469 130.484375 134.105469 C 128.636719 134.105469 127.054688 135.597656 127.054688 137.441406 Z M 169.339844 137.441406 C 169.339844 139.289062 170.832031 140.871094 172.679688 140.871094 C 174.523438 140.871094 176.105469 139.375 176.105469 137.53125 C 176.105469 135.6875 174.613281 134.105469 172.765625 134.105469 C 170.921875 134.105469 169.339844 135.597656 169.339844 137.441406 Z M 212.0625 137.441406 C 212.0625 139.023438 213.378906 140.429688 214.960938 140.429688 C 216.542969 140.429688 217.949219 139.113281 217.949219 137.53125 C 217.949219 135.949219 216.632812 134.542969 215.050781 134.542969 C 213.378906 134.542969 212.0625 135.863281 212.0625 137.441406 Z M 254.785156 137.441406 C 254.785156 138.847656 255.839844 139.992188 257.246094 139.992188 C 258.652344 139.992188 259.792969 138.9375 259.792969 137.53125 C 259.792969 136.125 258.738281 134.984375 257.332031 134.984375 C 255.925781 134.984375 254.785156 136.039062 254.785156 137.441406 Z M 84.773438 137.441406 C 84.773438 139.289062 86.265625 140.78125 88.113281 140.78125 C 89.957031 140.78125 91.453125 139.289062 91.453125 137.441406 C 91.453125 135.597656 89.957031 134.105469 88.113281 134.105469 C 86.355469 134.105469 84.773438 135.597656 84.773438 137.441406 Z M 127.496094 179.535156 C 127.496094 181.117188 128.8125 182.523438 130.394531 182.523438 C 131.976562 182.523438 133.382812 181.207031 133.382812 179.625 C 133.382812 178.042969 132.066406 176.636719 130.484375 176.636719 C 128.8125 176.550781 127.40625 177.957031 127.496094 179.535156 C 127.40625 179.535156 127.40625 179.535156 127.496094 179.535156 Z M 169.777344 179.535156 C 169.777344 181.117188 171.097656 182.523438 172.679688 182.523438 C 174.261719 182.523438 175.667969 181.207031 175.667969 179.625 C 175.667969 178.042969 174.347656 176.636719 172.765625 176.636719 C 171.097656 176.550781 169.691406 177.957031 169.777344 179.535156 C 169.691406 179.535156 169.691406 179.535156 169.777344 179.535156 Z M 212.0625 179.535156 C 212.0625 181.117188 213.378906 182.523438 214.960938 182.523438 C 216.542969 182.523438 217.949219 181.207031 217.949219 179.625 C 217.949219 178.042969 216.632812 176.636719 215.050781 176.636719 C 213.378906 176.550781 211.972656 177.957031 212.0625 179.535156 C 211.972656 179.535156 211.972656 179.535156 212.0625 179.535156 Z M 254.785156 179.535156 C 254.785156 180.941406 255.839844 182.085938 257.246094 182.085938 C 258.652344 182.085938 259.792969 181.03125 259.792969 179.625 C 259.792969 178.21875 258.738281 177.078125 257.332031 177.078125 C 255.839844 176.988281 254.695312 178.132812 254.785156 179.535156 C 254.695312 179.535156 254.695312 179.535156 254.785156 179.535156 Z M 42.929688 53.167969 C 42.929688 54.75 44.246094 56.15625 45.828125 56.15625 C 47.410156 56.15625 48.820312 54.835938 48.820312 53.253906 C 48.820312 51.671875 47.5 50.265625 45.917969 50.265625 C 44.246094 50.179688 42.839844 51.585938 42.929688 53.167969 C 42.839844 53.167969 42.839844 53.167969 42.929688 53.167969 Z M 1.085938 137.441406 C 1.085938 138.847656 2.140625 139.992188 3.546875 139.992188 C 4.953125 139.992188 6.097656 138.9375 6.097656 137.53125 C 6.097656 136.125 5.042969 134.984375 3.632812 134.984375 C 2.140625 134.894531 0.996094 136.039062 1.085938 137.441406 C 0.996094 137.441406 0.996094 137.441406 1.085938 137.441406 Z M 127.847656 221.632812 C 127.847656 223.035156 128.902344 224.179688 130.308594 224.179688 C 131.714844 224.179688 132.855469 223.125 132.855469 221.71875 C 132.855469 220.3125 131.800781 219.171875 130.394531 219.171875 C 128.988281 219.171875 127.847656 220.226562 127.847656 221.632812 Z M 170.128906 221.632812 C 170.128906 223.035156 171.183594 224.179688 172.589844 224.179688 C 173.996094 224.179688 175.140625 223.125 175.140625 221.71875 C 175.140625 220.3125 174.085938 219.171875 172.679688 219.171875 C 171.273438 219.171875 170.128906 220.226562 170.128906 221.632812 Z M 212.414062 221.632812 C 212.414062 223.035156 213.46875 224.179688 214.875 224.179688 C 216.28125 224.179688 217.421875 223.125 217.421875 221.71875 C 217.421875 220.3125 216.367188 219.171875 214.960938 219.171875 C 213.554688 219.171875 212.414062 220.226562 212.414062 221.632812 Z M 254.695312 221.632812 C 254.695312 223.035156 255.75 224.179688 257.15625 224.179688 C 258.5625 224.179688 259.707031 223.125 259.707031 221.71875 C 259.707031 220.3125 258.652344 219.171875 257.246094 219.171875 C 255.839844 219.171875 254.695312 220.226562 254.695312 221.632812 Z M 43.367188 221.632812 C 43.367188 223.035156 44.511719 224.179688 45.828125 224.179688 C 47.148438 224.179688 48.292969 223.035156 48.292969 221.632812 C 48.292969 220.226562 47.148438 219.082031 45.828125 219.082031 C 44.421875 219.257812 43.367188 220.226562 43.367188 221.632812 Z M 85.652344 221.632812 C 85.652344 223.035156 86.792969 224.179688 88.113281 224.179688 C 89.429688 224.179688 90.574219 223.035156 90.574219 221.632812 C 90.574219 220.226562 89.429688 219.082031 88.113281 219.082031 C 86.707031 219.257812 85.652344 220.226562 85.652344 221.632812 Z M 0.996094 221.632812 C 0.996094 223.035156 2.050781 224.179688 3.457031 224.179688 C 4.867188 224.179688 6.007812 223.125 6.007812 221.71875 C 6.007812 220.3125 4.953125 219.171875 3.546875 219.171875 C 2.140625 219.171875 0.996094 220.226562 0.996094 221.632812 Z M 126.617188 53.253906 C 126.617188 55.101562 128.109375 56.683594 130.042969 56.683594 C 131.976562 56.683594 133.472656 55.1875 133.472656 53.253906 C 133.472656 51.320312 131.976562 49.828125 130.042969 49.828125 C 128.109375 49.828125 126.617188 51.410156 126.617188 53.253906 Z M 168.898438 53.253906 C 168.898438 55.101562 170.480469 56.683594 172.328125 56.683594 C 174.171875 56.683594 175.753906 55.101562 175.753906 53.253906 C 175.753906 51.410156 174.171875 49.828125 172.328125 49.828125 C 170.480469 49.828125 168.898438 51.410156 168.898438 53.253906 Z M 211.621094 53.253906 C 211.621094 54.925781 213.027344 56.242188 214.609375 56.242188 C 216.28125 56.242188 217.597656 54.835938 217.597656 53.253906 C 217.597656 51.671875 216.191406 50.265625 214.609375 50.265625 C 213.027344 50.265625 211.621094 51.585938 211.621094 53.253906 Z M 254.433594 53.253906 C 254.433594 54.660156 255.574219 55.804688 256.980469 55.804688 C 258.386719 55.804688 259.53125 54.660156 259.53125 53.253906 C 259.53125 51.847656 258.386719 50.707031 256.980469 50.707031 C 255.488281 50.707031 254.433594 51.847656 254.433594 53.253906 Z M 42.578125 11.160156 C 42.578125 12.742188 43.894531 14.148438 45.476562 14.148438 C 47.058594 14.148438 48.378906 12.832031 48.378906 11.160156 C 48.378906 9.492188 47.058594 8.171875 45.476562 8.171875 C 43.808594 8.171875 42.578125 9.578125 42.578125 11.160156 Z M 84.332031 53.253906 C 84.332031 55.101562 85.914062 56.59375 87.761719 56.59375 C 89.605469 56.59375 91.101562 55.011719 91.101562 53.167969 C 91.101562 51.320312 89.519531 49.828125 87.671875 49.828125 C 85.828125 49.828125 84.332031 51.410156 84.332031 53.253906 Z M 0.558594 53.253906 C 0.558594 54.660156 1.699219 55.804688 3.019531 55.804688 C 4.425781 55.804688 5.570312 54.660156 5.570312 53.253906 C 5.570312 51.847656 4.425781 50.707031 3.019531 50.707031 C 1.699219 50.707031 0.558594 51.847656 0.558594 53.253906 Z M 127.582031 -30.933594 C 127.582031 -29.527344 128.726562 -28.472656 130.132812 -28.472656 C 131.539062 -28.472656 132.59375 -29.613281 132.59375 -31.019531 C 132.59375 -32.425781 131.449219 -33.480469 130.042969 -33.480469 C 128.636719 -33.480469 127.582031 -32.339844 127.582031 -30.933594 Z M 169.867188 -30.933594 C 169.867188 -29.527344 171.007812 -28.472656 172.414062 -28.472656 C 173.820312 -28.472656 174.875 -29.613281 174.875 -31.019531 C 174.875 -32.425781 173.734375 -33.480469 172.328125 -33.480469 C 170.921875 -33.480469 169.867188 -32.339844 169.867188 -30.933594 Z M 212.148438 -30.933594 C 212.148438 -29.527344 213.292969 -28.472656 214.699219 -28.472656 C 216.105469 -28.472656 217.160156 -29.613281 217.160156 -31.019531 C 217.160156 -32.425781 216.015625 -33.480469 214.609375 -33.480469 C 213.203125 -33.480469 212.148438 -32.339844 212.148438 -30.933594 Z M 254.433594 -30.933594 C 254.433594 -29.527344 255.574219 -28.472656 256.980469 -28.472656 C 258.386719 -28.472656 259.441406 -29.613281 259.441406 -31.019531 C 259.441406 -32.425781 258.300781 -33.480469 256.894531 -33.480469 C 255.488281 -33.480469 254.433594 -32.339844 254.433594 -30.933594 Z M 43.015625 -30.933594 C 43.015625 -29.613281 44.160156 -28.472656 45.476562 -28.472656 C 46.796875 -28.472656 47.941406 -29.613281 47.941406 -30.933594 C 47.941406 -32.25 46.796875 -33.394531 45.476562 -33.394531 C 44.070312 -33.480469 43.015625 -32.25 43.015625 -30.933594 Z M 0.644531 -30.933594 C 0.644531 -29.527344 1.789062 -28.472656 3.195312 -28.472656 C 4.601562 -28.472656 5.65625 -29.613281 5.65625 -31.019531 C 5.65625 -32.425781 4.515625 -33.480469 3.105469 -33.480469 C 1.699219 -33.480469 0.644531 -32.339844 0.644531 -30.933594 Z M 85.210938 179.535156 C 85.210938 181.207031 86.53125 182.4375 88.113281 182.4375 C 89.695312 182.4375 91.015625 181.117188 91.015625 179.535156 C 91.015625 177.957031 89.695312 176.636719 88.113281 176.636719 C 86.441406 176.550781 85.210938 177.957031 85.210938 179.535156 Z M 1.085938 179.535156 C 1.085938 180.941406 2.140625 182.085938 3.546875 182.085938 C 4.953125 182.085938 6.097656 181.03125 6.097656 179.625 C 6.097656 178.21875 5.042969 177.078125 3.632812 177.078125 C 2.140625 176.988281 0.996094 178.132812 1.085938 179.535156 C 0.996094 179.535156 0.996094 179.535156 1.085938 179.535156 Z M 42.929688 95.261719 C 42.929688 96.84375 44.246094 98.25 45.828125 98.25 C 47.410156 98.25 48.820312 96.929688 48.820312 95.347656 C 48.820312 93.765625 47.5 92.363281 45.917969 92.363281 C 44.246094 92.273438 42.839844 93.679688 42.929688 95.261719 C 42.839844 95.261719 42.839844 95.261719 42.929688 95.261719 Z M 42.929688 137.441406 C 42.929688 139.023438 44.160156 140.34375 45.828125 140.34375 C 47.410156 140.34375 48.730469 139.113281 48.730469 137.441406 C 48.730469 135.773438 47.5 134.542969 45.828125 134.542969 C 44.246094 134.457031 42.929688 135.773438 42.929688 137.441406 Z M 42.929688 179.535156 C 42.929688 181.207031 44.246094 182.4375 45.828125 182.4375 C 47.410156 182.4375 48.730469 181.117188 48.730469 179.535156 C 48.730469 177.957031 47.410156 176.636719 45.828125 176.636719 C 44.160156 176.550781 42.929688 177.867188 42.929688 179.535156 Z M 85.300781 -30.933594 C 85.300781 -29.613281 86.441406 -28.472656 87.761719 -28.472656 C 89.078125 -28.472656 90.222656 -29.613281 90.222656 -30.933594 C 90.222656 -32.25 89.078125 -33.394531 87.761719 -33.394531 C 86.355469 -33.480469 85.300781 -32.25 85.300781 -30.933594 Z M 85.300781 -30.933594 "/>
</g>
</g>
</defs>
<g id="surface1">
<rect x="0" y="0" width="1080" height="299.999988" style="fill:rgb(100%,100%,100%);fill-opacity:1;stroke:none;"/>
<rect x="0" y="0" width="1080" height="299.999988" style="fill:rgb(100%,100%,100%);fill-opacity:1;stroke:none;"/>
<rect x="0" y="0" width="1080" height="299.999988" style="fill:rgb(0%,40.388489%,95.689392%);fill-opacity:1;stroke:none;"/>
<path style=" stroke:none;fill-rule:nonzero;fill:rgb(1.179504%,35.289001%,76.858521%);fill-opacity:1;" d="M 680.144531 292.515625 C 680.144531 294.273438 680.1875 296.03125 680.273438 297.785156 C 680.359375 299.542969 680.488281 301.296875 680.660156 303.046875 C 680.832031 304.796875 681.046875 306.542969 681.308594 308.28125 C 681.566406 310.019531 681.867188 311.753906 682.207031 313.476562 C 682.550781 315.203125 682.9375 316.917969 683.363281 318.625 C 683.792969 320.328125 684.261719 322.023438 684.769531 323.707031 C 685.28125 325.390625 685.832031 327.058594 686.425781 328.714844 C 687.015625 330.371094 687.648438 332.011719 688.324219 333.632812 C 688.996094 335.257812 689.707031 336.867188 690.460938 338.457031 C 691.210938 340.046875 692.003906 341.617188 692.832031 343.167969 C 693.660156 344.71875 694.527344 346.246094 695.429688 347.753906 C 696.335938 349.265625 697.277344 350.75 698.253906 352.210938 C 699.230469 353.671875 700.242188 355.109375 701.289062 356.523438 C 702.335938 357.9375 703.417969 359.320312 704.535156 360.679688 C 705.648438 362.039062 706.796875 363.371094 707.980469 364.675781 C 709.160156 365.976562 710.371094 367.25 711.617188 368.496094 C 712.859375 369.738281 714.132812 370.949219 715.433594 372.132812 C 716.738281 373.3125 718.070312 374.460938 719.429688 375.574219 C 720.789062 376.691406 722.175781 377.773438 723.585938 378.820312 C 725 379.867188 726.4375 380.878906 727.898438 381.855469 C 729.359375 382.835938 730.847656 383.773438 732.355469 384.679688 C 733.863281 385.582031 735.390625 386.449219 736.941406 387.277344 C 738.492188 388.109375 740.0625 388.898438 741.652344 389.648438 C 743.242188 390.402344 744.851562 391.113281 746.476562 391.785156 C 748.101562 392.460938 749.738281 393.09375 751.394531 393.683594 C 753.050781 394.277344 754.722656 394.828125 756.402344 395.339844 C 758.085938 395.851562 759.78125 396.320312 761.488281 396.746094 C 763.191406 397.171875 764.90625 397.558594 766.632812 397.902344 C 768.355469 398.246094 770.089844 398.546875 771.828125 398.804688 C 773.566406 399.0625 775.3125 399.277344 777.0625 399.449219 C 778.8125 399.621094 780.566406 399.75 782.324219 399.835938 C 784.078125 399.921875 785.835938 399.964844 787.59375 399.964844 C 789.355469 399.964844 791.109375 399.921875 792.867188 399.835938 C 794.625 399.75 796.378906 399.621094 798.128906 399.449219 C 799.878906 399.277344 801.621094 399.0625 803.363281 398.804688 C 805.101562 398.546875 806.832031 398.246094 808.558594 397.902344 C 810.28125 397.558594 811.996094 397.171875 813.703125 396.746094 C 815.410156 396.320312 817.105469 395.851562 818.785156 395.339844 C 820.46875 394.828125 822.140625 394.277344 823.792969 393.683594 C 825.449219 393.09375 827.089844 392.460938 828.714844 391.785156 C 830.339844 391.113281 831.945312 390.402344 833.535156 389.648438 C 835.125 388.898438 836.695312 388.109375 838.246094 387.277344 C 839.796875 386.449219 841.328125 385.582031 842.835938 384.679688 C 844.34375 383.773438 845.828125 382.835938 847.292969 381.855469 C 848.753906 380.878906 850.191406 379.867188 851.605469 378.820312 C 853.015625 377.773438 854.402344 376.691406 855.761719 375.574219 C 857.121094 374.460938 858.453125 373.3125 859.753906 372.132812 C 861.058594 370.949219 862.332031 369.738281 863.574219 368.496094 C 864.820312 367.25 866.03125 365.976562 867.210938 364.675781 C 868.390625 363.371094 869.539062 362.039062 870.65625 360.679688 C 871.773438 359.320312 872.855469 357.9375 873.902344 356.523438 C 874.949219 355.109375 875.960938 353.671875 876.9375 352.210938 C 877.914062 350.75 878.855469 349.265625 879.757812 347.753906 C 880.664062 346.246094 881.53125 344.71875 882.359375 343.167969 C 883.1875 341.617188 883.976562 340.046875 884.730469 338.457031 C 885.480469 336.867188 886.195312 335.257812 886.867188 333.632812 C 887.539062 332.011719 888.171875 330.371094 888.765625 328.714844 C 889.359375 327.058594 889.910156 325.390625 890.421875 323.707031 C 890.929688 322.023438 891.398438 320.328125 891.828125 318.625 C 892.253906 316.917969 892.640625 315.203125 892.980469 313.476562 C 893.324219 311.753906 893.625 310.019531 893.882812 308.28125 C 894.140625 306.542969 894.355469 304.796875 894.53125 303.046875 C 894.703125 301.296875 894.832031 299.542969 894.917969 297.785156 C 895.003906 296.03125 895.046875 294.273438 895.046875 292.515625 C 895.046875 290.757812 895.003906 289 894.917969 287.242188 C 894.832031 285.484375 894.703125 283.734375 894.53125 281.984375 C 894.355469 280.234375 894.140625 278.488281 893.882812 276.75 C 893.625 275.007812 893.324219 273.277344 892.980469 271.550781 C 892.640625 269.828125 892.253906 268.113281 891.828125 266.40625 C 891.398438 264.699219 890.929688 263.007812 890.417969 261.324219 C 889.910156 259.640625 889.359375 257.972656 888.765625 256.316406 C 888.171875 254.660156 887.539062 253.019531 886.867188 251.394531 C 886.195312 249.769531 885.480469 248.164062 884.730469 246.574219 C 883.976562 244.984375 883.1875 243.414062 882.359375 241.863281 C 881.53125 240.3125 880.664062 238.78125 879.757812 237.273438 C 878.855469 235.765625 877.914062 234.28125 876.9375 232.816406 C 875.960938 231.355469 874.949219 229.917969 873.902344 228.507812 C 872.855469 227.09375 871.773438 225.707031 870.65625 224.347656 C 869.539062 222.988281 868.390625 221.65625 867.210938 220.355469 C 866.03125 219.050781 864.820312 217.777344 863.574219 216.535156 C 862.332031 215.292969 861.058594 214.078125 859.753906 212.898438 C 858.453125 211.71875 857.121094 210.570312 855.761719 209.453125 C 854.402344 208.339844 853.015625 207.257812 851.605469 206.207031 C 850.191406 205.160156 848.753906 204.148438 847.292969 203.171875 C 845.828125 202.195312 844.34375 201.253906 842.835938 200.351562 C 841.328125 199.445312 839.796875 198.578125 838.246094 197.75 C 836.695312 196.921875 835.125 196.132812 833.535156 195.378906 C 831.945312 194.628906 830.339844 193.914062 828.714844 193.242188 C 827.089844 192.570312 825.449219 191.9375 823.792969 191.34375 C 822.140625 190.75 820.46875 190.199219 818.785156 189.691406 C 817.105469 189.179688 815.410156 188.710938 813.703125 188.285156 C 811.996094 187.855469 810.28125 187.472656 808.558594 187.128906 C 806.832031 186.785156 805.101562 186.484375 803.363281 186.226562 C 801.621094 185.96875 799.878906 185.753906 798.128906 185.582031 C 796.378906 185.40625 794.625 185.277344 792.867188 185.191406 C 791.109375 185.105469 789.355469 185.0625 787.59375 185.0625 C 785.835938 185.0625 784.078125 185.105469 782.324219 185.191406 C 780.566406 185.277344 778.8125 185.40625 777.0625 185.582031 C 775.3125 185.753906 773.566406 185.96875 771.828125 186.226562 C 770.089844 186.484375 768.355469 186.785156 766.632812 187.128906 C 764.90625 187.472656 763.191406 187.855469 761.488281 188.285156 C 759.78125 188.710938 758.085938 189.179688 756.402344 189.691406 C 754.722656 190.199219 753.050781 190.75 751.394531 191.34375 C 749.738281 191.9375 748.101562 192.570312 746.476562 193.242188 C 744.851562 193.914062 743.242188 194.628906 741.652344 195.378906 C 740.0625 196.132812 738.492188 196.921875 736.941406 197.75 C 735.390625 198.578125 733.863281 199.445312 732.355469 200.351562 C 730.847656 201.253906 729.359375 202.195312 727.898438 203.171875 C 726.4375 204.148438 725 205.160156 723.585938 206.207031 C 722.175781 207.257812 720.789062 208.339844 719.429688 209.453125 C 718.070312 210.570312 716.738281 211.71875 715.433594 212.898438 C 714.132812 214.078125 712.859375 215.292969 711.617188 216.535156 C 710.371094 217.777344 709.160156 219.050781 707.980469 220.355469 C 706.796875 221.65625 705.648438 222.988281 704.535156 224.347656 C 703.417969 225.707031 702.335938 227.09375 701.289062 228.503906 C 700.242188 229.917969 699.230469 231.355469 698.253906 232.816406 C 697.277344 234.28125 696.335938 235.765625 695.429688 237.273438 C 694.527344 238.78125 693.660156 240.3125 692.832031 241.863281 C 692.003906 243.414062 691.210938 244.984375 690.460938 246.574219 C 689.707031 248.164062 688.996094 249.769531 688.324219 251.394531 C 687.648438 253.019531 687.015625 254.660156 686.425781 256.316406 C 685.832031 257.972656 685.28125 259.640625 684.769531 261.324219 C 684.261719 263.007812 683.792969 264.699219 683.363281 266.40625 C 682.9375 268.113281 682.550781 269.828125 682.207031 271.550781 C 681.867188 273.277344 681.566406 275.007812 681.308594 276.75 C 681.046875 278.488281 680.832031 280.234375 680.660156 281.984375 C 680.488281 283.734375 680.359375 285.484375 680.273438 287.242188 C 680.1875 289 680.144531 290.757812 680.144531 292.515625 Z M 680.144531 292.515625 "/>
<use xlink:href="#surface5" transform="matrix(1,0,0,1,657,0)" mask="url(#mask0)"/>
<use xlink:href="#surface8" transform="matrix(1,0,0,1,950,0)" mask="url(#mask1)"/>
<path style=" stroke:none;fill-rule:nonzero;fill:rgb(1.179504%,35.289001%,76.858521%);fill-opacity:1;" d="M 320.199219 19.390625 C 320.199219 21.128906 320.285156 22.859375 320.453125 24.589844 C 320.625 26.316406 320.878906 28.035156 321.21875 29.738281 C 321.554688 31.441406 321.976562 33.125 322.480469 34.789062 C 322.988281 36.449219 323.570312 38.082031 324.234375 39.6875 C 324.902344 41.292969 325.640625 42.863281 326.460938 44.394531 C 327.28125 45.925781 328.171875 47.414062 329.136719 48.859375 C 330.101562 50.300781 331.136719 51.695312 332.238281 53.039062 C 333.339844 54.382812 334.503906 55.667969 335.734375 56.894531 C 336.960938 58.125 338.246094 59.289062 339.589844 60.390625 C 340.933594 61.492188 342.328125 62.527344 343.769531 63.492188 C 345.214844 64.457031 346.703125 65.347656 348.234375 66.167969 C 349.765625 66.988281 351.335938 67.726562 352.941406 68.394531 C 354.546875 69.058594 356.179688 69.640625 357.839844 70.148438 C 359.503906 70.652344 361.1875 71.074219 362.890625 71.410156 C 364.59375 71.75 366.3125 72.003906 368.039062 72.175781 C 369.769531 72.34375 371.5 72.429688 373.238281 72.429688 C 374.976562 72.429688 376.707031 72.34375 378.4375 72.175781 C 380.164062 72.003906 381.882812 71.75 383.585938 71.410156 C 385.289062 71.074219 386.972656 70.652344 388.636719 70.148438 C 390.296875 69.640625 391.929688 69.058594 393.535156 68.394531 C 395.140625 67.726562 396.710938 66.988281 398.242188 66.167969 C 399.773438 65.347656 401.261719 64.457031 402.707031 63.492188 C 404.148438 62.527344 405.542969 61.492188 406.886719 60.390625 C 408.230469 59.289062 409.515625 58.125 410.742188 56.894531 C 411.972656 55.667969 413.136719 54.382812 414.238281 53.039062 C 415.339844 51.695312 416.375 50.300781 417.339844 48.859375 C 418.304688 47.414062 419.195312 45.925781 420.015625 44.394531 C 420.835938 42.863281 421.578125 41.292969 422.242188 39.6875 C 422.90625 38.082031 423.492188 36.449219 423.996094 34.789062 C 424.5 33.125 424.921875 31.441406 425.257812 29.738281 C 425.597656 28.035156 425.851562 26.316406 426.023438 24.589844 C 426.195312 22.859375 426.277344 21.128906 426.277344 19.390625 C 426.277344 17.652344 426.195312 15.921875 426.023438 14.191406 C 425.851562 12.460938 425.597656 10.746094 425.257812 9.042969 C 424.921875 7.339844 424.5 5.65625 423.996094 3.992188 C 423.492188 2.332031 422.90625 0.699219 422.242188 -0.90625 C 421.578125 -2.511719 420.835938 -4.082031 420.015625 -5.613281 C 419.195312 -7.144531 418.304688 -8.632812 417.339844 -10.078125 C 416.375 -11.523438 415.339844 -12.914062 414.238281 -14.257812 C 413.136719 -15.601562 411.972656 -16.886719 410.742188 -18.113281 C 409.515625 -19.34375 408.230469 -20.507812 406.886719 -21.609375 C 405.542969 -22.710938 404.148438 -23.746094 402.707031 -24.710938 C 401.261719 -25.675781 399.773438 -26.566406 398.242188 -27.386719 C 396.710938 -28.207031 395.140625 -28.949219 393.535156 -29.613281 C 391.929688 -30.277344 390.296875 -30.863281 388.636719 -31.367188 C 386.972656 -31.871094 385.289062 -32.292969 383.585938 -32.628906 C 381.882812 -32.96875 380.164062 -33.222656 378.4375 -33.394531 C 376.707031 -33.566406 374.976562 -33.648438 373.238281 -33.648438 C 371.5 -33.648438 369.769531 -33.566406 368.039062 -33.394531 C 366.3125 -33.222656 364.59375 -32.96875 362.890625 -32.628906 C 361.1875 -32.292969 359.503906 -31.871094 357.839844 -31.367188 C 356.179688 -30.863281 354.546875 -30.277344 352.941406 -29.613281 C 351.335938 -28.949219 349.765625 -28.207031 348.234375 -27.386719 C 346.703125 -26.566406 345.214844 -25.675781 343.769531 -24.710938 C 342.328125 -23.746094 340.933594 -22.710938 339.589844 -21.609375 C 338.246094 -20.507812 336.960938 -19.34375 335.734375 -18.113281 C 334.503906 -16.886719 333.339844 -15.601562 332.238281 -14.257812 C 331.136719 -12.914062 330.101562 -11.523438 329.136719 -10.078125 C 328.171875 -8.632812 327.28125 -7.144531 326.460938 -5.613281 C 325.640625 -4.082031 324.902344 -2.511719 324.234375 -0.90625 C 323.570312 0.699219 322.988281 2.332031 322.480469 3.992188 C 321.976562 5.65625 321.554688 7.339844 321.21875 9.042969 C 320.878906 10.746094 320.625 12.460938 320.453125 14.191406 C 320.285156 15.921875 320.199219 17.652344 320.199219 19.390625 Z M 320.199219 19.390625 "/>
</g>
</svg>
